<svg width="370" height="397" viewBox="0 0 370 397" fill="none" xmlns="http://www.w3.org/2000/svg">
<g filter="url(#filter0_d_0_3043)">
<rect x="48" y="48" width="262" height="289" rx="18" fill="white"/>
</g>
<mask id="mask0_0_3043" style="mask-type:luminance" maskUnits="userSpaceOnUse" x="48" y="48" width="262" height="289">
<rect x="48" y="48" width="262" height="289" rx="18" fill="white"/>
</mask>
<g mask="url(#mask0_0_3043)">
<g opacity="0.08">
<path d="M276.428 316.59C266.535 314.641 265.355 307.353 263.856 298.115C262.17 287.801 260.09 274.969 244.952 264.737C237.363 259.62 230.094 256.412 222.712 254.93C216.117 253.611 209.559 253.692 202.702 255.194C189.962 257.996 177.933 265.468 166.28 272.675C155.375 279.436 144.096 286.44 131.955 289.892C125.435 291.76 119.215 292.45 112.939 292.044C105.894 291.577 98.9616 289.73 91.767 286.38C79.1952 280.532 66.6984 278.502 54.6325 280.329C52.4029 280.674 50.1921 281.141 48 281.75V282.38C50.2296 281.771 52.4591 281.284 54.7262 280.938C66.6984 279.111 79.0828 281.141 91.5609 286.928C100.423 291.049 108.629 292.755 116.367 292.755C135.047 292.755 150.991 282.867 166.561 273.223C178.701 265.691 190.149 258.585 202.815 255.803C209.597 254.301 216.08 254.22 222.6 255.539C229.925 257.001 237.139 260.189 244.652 265.264C251.303 269.751 259.584 275.335 263.313 298.216C264.081 302.987 264.755 307.109 266.535 310.418C268.503 314.093 271.631 316.245 276.334 317.179C290.255 319.94 298.536 324.305 302.377 330.924C303.295 332.488 303.97 334.193 304.419 336H305C304.532 334.071 303.838 332.285 302.845 330.599C298.911 323.839 290.517 319.392 276.428 316.59Z" fill="#848484"/>
<path d="M265.555 323.324C253.77 321.427 252.665 317.612 250.267 309.296C248.169 302.05 245.002 291.069 232.618 275.144C215.963 253.708 198.295 267.11 177.836 282.632C157.096 298.376 133.583 316.199 104.881 303.362C93.8829 298.437 82.7916 296.014 71.8876 296.115C63.7752 296.196 55.7377 297.69 48 300.556V301.202C55.7377 298.316 63.7564 296.822 71.8876 296.741C82.7166 296.62 93.733 299.062 104.656 303.947C117.583 309.74 130.642 309.841 144.543 304.29C156.703 299.426 167.607 291.15 178.155 283.157C188.272 275.487 197.827 268.241 206.763 265.657C216.637 262.791 224.712 265.94 232.187 275.568C244.496 291.412 247.644 302.312 249.724 309.518C252.122 317.834 253.34 322.012 265.48 323.97C272.581 325.121 277.021 327.946 278.689 332.367C279.101 333.477 279.344 334.688 279.438 336H280C279.925 334.607 279.663 333.315 279.213 332.145C277.452 327.462 272.862 324.515 265.555 323.324Z" fill="#848484"/>
<path d="M207.441 296.724C202.243 292.965 195.269 293.087 186.724 297.151C179.937 300.361 172.14 306.051 163.539 314.017C154.752 322.186 146.899 331.127 142 337H142.748C147.647 331.127 155.313 322.43 163.895 314.464C172.458 306.519 180.199 300.87 186.93 297.679C195.287 293.717 202.075 293.554 207.104 297.212C218.79 305.686 224.998 319.991 230.476 332.611C231.13 334.094 231.747 335.557 232.383 336.98H233C232.327 335.476 231.654 333.932 230.981 332.347C225.502 319.666 219.257 305.279 207.441 296.724Z" fill="#848484"/>
<path d="M192.532 317.365C190.137 315.505 187.041 315.546 183.337 317.486C180.425 319.022 177.126 321.731 173.532 325.551C170.105 329.209 167.027 333.191 165 336H165.719C171.468 328.138 184.645 311.989 192.201 317.85C197.084 321.65 199.941 329.189 202.41 336H203C200.494 329.067 197.619 321.306 192.532 317.365Z" fill="#848484"/>
<path d="M99.7985 317.11C95.0048 315.797 90.0432 314.443 85.5852 312.831C74.5241 308.79 61.7097 312.194 52.9057 315.757C51.171 316.454 49.5295 317.19 48 317.927V318.583C49.5855 317.827 51.3015 317.051 53.1108 316.314C61.8216 312.791 74.5055 309.427 85.3986 313.408C89.8566 315.04 94.8369 316.394 99.6493 317.708C110.468 320.653 120.69 323.44 121.398 328.496C121.697 330.626 120.316 333.114 117.22 336H118.041C120.969 333.114 122.256 330.606 121.958 328.396C121.193 322.943 111.289 320.255 99.7985 317.11Z" fill="#848484"/>
<path d="M93.3179 325.496C89.5761 324.796 85.0216 324.837 80.8262 325.62C73.059 327.061 57.8649 331.675 48 334.785V335.423C57.8649 332.313 73.1535 327.679 80.9396 326.217C85.0783 325.455 89.5572 325.393 93.2423 326.093C98.5716 327.103 100.443 329.224 101.085 330.851C101.671 332.313 101.52 334.043 100.65 336H101.293C102.124 333.982 102.219 332.169 101.595 330.604C100.329 327.432 96.3983 326.073 93.3179 325.496Z" fill="#848484"/>
<path d="M71.9684 213.048C80.4088 219.251 85.9174 228.147 90.7539 236.003C96.2439 244.899 101.006 252.592 108.438 253.837C109.129 253.959 109.838 254 110.548 254C116.281 254 123.096 250.388 131.742 242.777C138.222 237.064 143.618 231.881 148.38 227.29C158.427 217.598 165.69 210.599 173.72 208.334C181.918 206.008 190.918 208.456 204.774 216.761C216.09 223.556 229.591 228.229 241.785 229.575C247.462 230.208 252.615 230.086 256.705 229.188C261.019 228.249 264.044 226.556 265.668 224.127C267.89 220.801 268.432 214.619 258.33 204.029C246.248 191.357 232.504 189.827 217.958 188.215C208.322 187.154 198.35 186.032 188.285 181.604C176.895 176.605 167.016 167.912 158.072 155.078C151.461 145.589 143.749 141.1 135.738 142.1C130.286 142.773 124.926 145.916 119.81 151.405C114.675 156.955 110.044 164.607 106.085 174.156C103.134 181.236 99.8852 184.869 96.0945 185.236C87.8968 186.032 78.4107 170.973 69.2607 156.404C64.6857 149.119 59.9613 141.61 55.461 136.223C53.1268 133.428 50.9981 131.367 49 130V130.755C55.293 135.285 62.1274 146.14 68.7939 156.751C73.3876 164.056 78.1493 171.626 82.7243 177.135C87.6167 183.012 91.7996 185.889 95.4783 185.889C95.7023 185.889 95.9264 185.868 96.1505 185.848C100.147 185.46 103.564 181.726 106.589 174.421C110.529 164.933 115.104 157.342 120.202 151.854C125.225 146.446 130.472 143.365 135.794 142.712C143.581 141.753 151.144 146.161 157.624 155.465C166.624 168.402 176.596 177.135 188.061 182.175C198.201 186.644 208.21 187.746 217.883 188.827C232.336 190.439 245.986 191.949 257.937 204.478C267.76 214.782 267.312 220.659 265.22 223.78C262.158 228.331 253.418 230.269 241.841 228.984C229.722 227.637 216.296 222.985 205.035 216.231C191.049 207.844 181.936 205.396 173.571 207.763C165.41 210.068 158.109 217.108 148.007 226.862C143.245 231.453 137.867 236.636 131.387 242.328C121.789 250.776 114.525 254.245 108.512 253.245C101.323 252.062 96.636 244.471 91.202 235.676C86.3283 227.78 80.8009 218.843 72.2671 212.558C65.1899 207.355 58.4488 204.743 52.1558 204.743C51.0914 204.743 50.0457 204.824 49 204.967V205.579C56.0772 204.539 63.7894 207.049 71.9684 213.048Z" fill="#848484"/>
<path d="M58.5254 272.736C67.2121 272.88 76.9307 274.79 85.5049 276.453C97.7938 278.855 107.475 280.744 108.676 276.391C110.477 269.862 104.623 264.461 94.9045 255.529C87.9439 249.123 79.2572 241.156 69.9701 229.698C62.9907 221.095 56.0301 217.194 49.3133 218.138C48.9006 218.2 48.469 218.282 48 218.385V219.021C48.4503 218.918 48.9193 218.816 49.3884 218.754C55.9175 217.851 62.6905 221.67 69.5573 230.109C78.8819 241.608 87.5687 249.595 94.5481 256.022C104.079 264.79 109.839 270.087 108.15 276.227C107.1 280.046 97.1372 278.095 85.6174 275.857C73.1784 273.434 58.5817 270.58 48.0188 273.044V273.681C50.9831 272.983 54.4916 272.654 58.5254 272.736Z" fill="#848484"/>
<path d="M83.6761 270C88.6048 270 91.3724 269.023 91.9032 267.047C93.0785 262.743 83.278 254.986 77.3067 250.744C68.8711 244.734 58.8242 239.078 53.4216 237.269C51.6207 236.665 49.8009 236.25 48.019 236V236.624C49.744 236.873 51.5069 237.289 53.2509 237.872C58.6156 239.66 68.6057 245.275 76.9845 251.264C86.747 258.23 92.1117 264.053 91.3345 266.86C90.5763 269.605 83.8277 270.104 72.3212 268.274C62.9946 266.798 53.2699 264.24 48 262.618V263.262C53.3078 264.905 62.9756 267.421 72.2264 268.898C76.8707 269.626 80.662 270 83.6761 270Z" fill="#848484"/>
<path d="M59.1797 258C61.442 258 62.7051 257.52 62.9502 256.56C63.4781 254.641 59.7075 251.449 56.446 249.112C53.637 247.088 50.432 245.168 48 244V244.689C50.3754 245.857 53.4484 247.714 56.1444 249.654C60.3297 252.659 62.724 255.246 62.4035 256.393C61.8945 258.25 54.3345 257.207 48 255.642V256.268C49.9041 256.727 52.0345 257.186 54.1083 257.52C56.1632 257.833 57.8411 258 59.1797 258Z" fill="#848484"/>
<path fill-rule="evenodd" clip-rule="evenodd" d="M112.652 242C112.112 242 111.591 241.939 111.088 241.796C106.525 240.549 102.893 237.013 100.584 231.556C98.2557 225.997 97.4734 218.824 98.3488 210.792C99.1496 203.557 101.478 196.383 105.128 190.047C118.109 167.463 128.893 155.078 137.18 153.239C139.844 152.646 142.283 153.157 144.388 154.772C152.281 160.788 157.429 166.645 161.97 171.81L162.137 172.001L162.178 172.047C169.198 180.037 174.75 186.355 186.907 190.006C194.599 192.316 198.231 194.441 197.989 196.526C197.802 198.141 195.195 199.428 190.222 200.368C185.399 201.268 178.433 201.819 170.089 201.942C163.794 202.044 157.257 204.721 150.087 210.178C143.829 214.961 137.907 221.194 132.673 226.713C124.944 234.867 118.184 242 112.652 242ZM105.612 190.374C102.018 196.628 99.7084 203.72 98.9261 210.873C98.0694 218.783 98.833 225.834 101.124 231.291C103.34 236.584 106.841 240.018 111.237 241.203C111.702 241.326 112.187 241.387 112.671 241.387C117.96 241.387 124.646 234.336 132.281 226.284L132.282 226.283C137.516 220.745 143.457 214.491 149.77 209.688C157.034 204.17 163.683 201.431 170.089 201.329C178.415 201.206 185.343 200.654 190.129 199.755C196.294 198.59 197.355 197.18 197.449 196.444C197.709 194.114 190.073 191.56 186.777 190.579C174.448 186.859 168.842 180.482 161.764 172.409L161.688 172.322C157.144 167.152 151.998 161.298 144.09 155.262C142.637 154.158 141.036 153.607 139.285 153.607C138.652 153.607 137.981 153.688 137.311 153.831C129.191 155.65 118.519 167.933 105.612 190.374Z" fill="#848484"/>
<path fill-rule="evenodd" clip-rule="evenodd" d="M245.132 219.862C236.398 218.481 226.435 216.185 220.551 214.62C210.736 212.019 206.528 209.703 206.044 206.675C205.615 203.932 208.334 200.621 214.573 196.252C217.981 193.875 222.413 193.367 227.795 194.789C232.059 195.907 236.92 198.223 242.246 201.677C251.11 207.427 258.354 214.457 258.708 214.803C261.315 216.814 262.358 218.318 261.892 219.435C261.445 220.472 259.658 221 256.455 221C253.717 221 249.955 220.614 245.132 219.862ZM222.208 194.586C219.377 194.586 216.938 195.317 214.889 196.74C208.949 200.905 206.23 204.115 206.602 206.513C207.124 209.947 214.014 212.222 220.681 213.99C236.845 218.277 259.993 222.463 261.371 219.151C261.557 218.704 261.427 217.607 258.373 215.25L258.354 215.23C258.35 215.226 258.322 215.199 258.271 215.15C257.433 214.348 250.444 207.661 241.966 202.165C236.696 198.751 231.892 196.455 227.683 195.358C225.728 194.85 223.903 194.586 222.208 194.586Z" fill="#848484"/>
<path d="M310 209.1C308.668 207.585 307.148 206.03 305.421 204.475C298.853 198.561 290.522 193.69 280.651 189.986C268.322 185.362 253.554 182.538 236.759 181.596C227.151 181.064 208.724 179.202 193.167 172.674C176.785 165.819 167.703 155.689 166.201 142.572C164.456 127.388 166.164 117.975 171.587 112.92C177.517 107.395 188.251 107.149 204.389 112.224C215.592 115.744 224.655 120.573 231.936 124.462C239.123 128.309 244.809 131.337 249.876 131.869C255.374 132.442 259.671 130.007 263.8 123.97C266.427 120.123 268.51 116.481 270.349 113.268C274.046 106.781 276.729 102.095 281.101 100.355C285.718 98.5136 291.967 100.069 302.025 105.553C304.896 107.108 307.542 108.848 310 110.649V109.912C307.617 108.172 305.046 106.515 302.287 105.001C292.079 99.4344 285.699 97.8792 280.914 99.7619C276.354 101.583 273.652 106.331 269.88 112.92C268.06 116.112 265.977 119.734 263.368 123.582C254.886 136.003 246.348 131.44 232.199 123.889C224.899 119.98 215.798 115.13 204.558 111.61C188.213 106.494 177.31 106.76 171.23 112.429C165.657 117.627 163.893 127.224 165.657 142.633C167.196 155.996 176.391 166.289 192.979 173.247C208.611 179.796 227.114 181.658 236.74 182.21C253.479 183.131 268.172 185.955 280.445 190.559C290.24 194.243 298.516 199.072 305.027 204.925C306.941 206.644 308.593 208.363 310 210V209.1Z" fill="#848484"/>
<path d="M310 196.201C306.05 192.945 301.299 189.668 295.914 186.575C280.617 177.768 262.581 171.643 245.16 169.35C227.515 167.015 214.641 164.454 204.654 161.259C191.891 157.204 183.842 152.145 180.041 145.836C177.469 141.556 176.911 136.62 178.345 131.13C179.426 127.075 181.401 124.392 184.401 122.938C194.555 117.981 214.026 128.365 231.205 137.521C237.484 140.88 243.427 144.034 248.477 146.205C256.992 149.871 262.227 150.691 265.991 148.909C269.624 147.188 271.711 143.215 274.58 137.705C276.313 134.387 278.269 130.639 281.027 126.502C283.971 122.077 287.697 119.763 292.113 119.62C298.15 119.435 304.69 123.347 310 127.649V126.891C301.746 120.275 295.802 118.903 292.113 119.005C287.53 119.149 283.654 121.545 280.598 126.133C277.822 130.291 275.866 134.08 274.114 137.398C268.488 148.151 265.916 153.066 248.682 145.632C243.651 143.46 237.726 140.306 231.447 136.968C214.156 127.751 194.555 117.305 184.177 122.385C181.047 123.9 178.904 126.809 177.805 130.987C176.314 136.64 176.892 141.76 179.556 146.205C183.45 152.616 191.593 157.757 204.505 161.853C214.529 165.048 227.441 167.609 245.104 169.944C262.451 172.237 280.412 178.341 295.653 187.107C301.112 190.261 305.994 193.641 310 197V196.201Z" fill="#848484"/>
<path d="M309.981 187.16C299.35 177.013 284.932 172.954 273.629 169.798C262.662 166.723 254.754 164.509 255.612 158.524C255.854 156.781 258.055 156.904 261.916 157.273C265.497 157.601 269.936 158.032 274.133 156.474C279.094 154.629 282.507 150.468 284.559 143.745C285.995 139.03 288.289 136.324 291.348 135.75C296.944 134.685 304.293 140.67 310 146.614V145.753C309.851 145.61 309.72 145.446 309.571 145.303C302.036 137.677 295.881 134.254 291.255 135.135C287.972 135.75 285.548 138.579 284.037 143.54C279.523 158.319 268.966 157.314 261.972 156.658C258.167 156.289 255.407 156.044 255.071 158.442C254.642 161.475 256.153 163.812 259.883 165.76C263.203 167.502 267.978 168.855 273.499 170.392C284.895 173.59 299.424 177.669 310 188V187.16H309.981Z" fill="#848484"/>
<path d="M310 181.248C306.408 178.7 302.465 175.087 299.077 171.202C294.004 165.375 290.987 159.987 290.598 155.997C290.394 153.846 290.968 152.134 292.338 150.922C297.152 146.661 305.001 153.763 310 159.423V158.525C308.963 157.376 307.834 156.185 306.649 155.058C303.891 152.447 301.336 150.651 299.096 149.732C296.245 148.562 293.838 148.792 291.986 150.442C290.468 151.778 289.82 153.679 290.043 156.081C290.82 164.226 301.65 176.152 310 182V181.248Z" fill="#848484"/>
<path fill-rule="evenodd" clip-rule="evenodd" d="M245.333 156.849C245.398 156.899 245.433 156.927 245.44 156.931C247.663 158.731 248.428 160.208 247.775 161.341C247.027 162.535 244.618 163 241.442 163C237.089 163 231.261 162.13 226.142 161.017C213.682 158.327 201.801 153.755 194.367 148.798C185.998 143.215 183.158 137.166 186.166 131.299C186.969 129.722 188.314 128.71 190.145 128.265C196.048 126.829 207.163 131.239 223.153 141.334C234.391 148.413 244.208 155.982 245.333 156.849ZM240.377 162.353C245.552 162.494 246.934 161.543 247.289 160.977C247.887 159.986 246.43 158.509 245.103 157.437C244.618 157.052 208.003 128.609 192.517 128.609C191.695 128.609 190.948 128.69 190.257 128.852C188.594 129.256 187.38 130.167 186.651 131.583C185.157 134.496 185.176 137.449 186.726 140.383C188.127 143.053 190.799 145.703 194.647 148.273C202.026 153.188 213.832 157.74 226.236 160.411C231.56 161.564 236.585 162.251 240.377 162.353Z" fill="#848484"/>
<path fill-rule="evenodd" clip-rule="evenodd" d="M226.931 151.788C227.066 151.875 227.141 151.924 227.149 151.928C227.165 151.941 227.183 151.956 227.202 151.972C227.523 152.238 228.279 152.864 227.893 153.472C227.651 153.863 226.907 154 225.903 154C223.151 154 218.484 152.866 217.294 152.573C211.103 151.01 205.357 148.762 201.936 146.553C198.496 144.325 197.306 142.155 198.385 140.103C198.645 139.614 199.091 139.282 199.686 139.126C202.103 138.461 207.458 140.435 215.621 144.95C220.99 147.92 225.86 151.09 226.931 151.788ZM217.406 152.006C223.728 153.59 227.112 153.629 227.428 153.14C227.447 153.101 227.409 152.866 226.814 152.417C226.294 152.065 207.291 139.595 200.728 139.595C200.374 139.595 200.077 139.634 199.798 139.712C199.333 139.829 199.036 140.064 198.85 140.396C197.939 142.116 199.054 144.012 202.196 146.045C205.562 148.234 211.252 150.462 217.406 152.006Z" fill="#848484"/>
<path fill-rule="evenodd" clip-rule="evenodd" d="M116.508 226.782C114.649 227.649 113.124 228 111.878 228C109.348 228 107.954 226.535 107.191 225.028C102.226 215.268 113.44 183.839 128.69 171.581C133.246 167.929 137.338 166.443 140.834 167.186C143.717 167.805 146.19 169.889 148.199 173.397C150.17 176.823 151.118 180.785 150.988 184.871C150.858 188.936 149.649 192.836 147.51 196.138L146.934 197.026L146.9 197.077C139.807 208.019 132.477 219.324 116.508 226.782ZM129.025 172.097C122.125 177.648 115.337 187.904 110.873 199.522C106.689 210.418 105.424 220.303 107.675 224.719C109.181 227.67 112.064 228.165 116.285 226.184C132.13 218.776 139.421 207.529 146.469 196.633L147.046 195.746C149.128 192.548 150.3 188.771 150.43 184.83C150.56 180.868 149.631 177.029 147.734 173.728C145.818 170.385 143.456 168.383 140.741 167.805C140.183 167.681 139.607 167.619 139.03 167.619C136.073 167.619 132.725 169.126 129.025 172.097Z" fill="#848484"/>
<path fill-rule="evenodd" clip-rule="evenodd" d="M121.325 213.223C120.142 213.769 119.17 214 118.388 214C116.901 214 116.081 213.181 115.623 212.319C114.308 209.756 115.109 204.335 117.702 198.179C120.409 191.792 124.471 185.993 128.589 182.716C131.316 180.552 133.757 179.669 135.873 180.11C137.608 180.468 139.115 181.707 140.316 183.808C142.699 187.968 142.547 193.263 139.896 197.318C135.683 203.768 131.087 208.684 121.325 213.223ZM128.933 183.241C124.909 186.456 120.905 192.149 118.236 198.452C115.757 204.335 114.937 209.651 116.138 212.025C116.939 213.601 118.617 213.811 121.115 212.655C130.763 208.18 135.282 203.327 139.439 196.961C141.956 193.116 142.108 188.094 139.839 184.165C138.714 182.233 137.36 181.077 135.778 180.741C135.454 180.678 135.13 180.636 134.786 180.636C133.051 180.636 131.106 181.518 128.933 183.241Z" fill="#848484"/>
<path opacity="0.2" d="M126.007 202C126.222 202 126.486 201.938 126.8 201.771C129.246 200.482 130.387 199.068 131.444 197.217C132.139 196.011 132.188 194.409 131.56 193.182C131.23 192.538 130.833 192.163 130.354 192.038C129.792 191.893 129.131 192.163 128.42 192.808C126.255 194.784 124.404 199.692 125.181 201.418C125.296 201.667 125.528 202 126.007 202Z" fill="#848484" stroke="#575757" stroke-width="5"/>
<path d="M309.944 318.423C304.565 318.155 299.336 317.393 294.71 316.157C288.616 314.53 283.501 312.079 279.514 308.907C274.624 305.014 271.408 299.988 269.922 293.932C267.853 285.425 264.581 277.392 260.462 270.677C255.629 262.788 249.704 256.711 242.821 252.592C230.164 244.991 214.761 244.27 197.063 250.45C175.623 257.927 158.941 265.775 146.754 271.521C131.201 278.834 122.625 282.871 120.669 278.442C120.5 278.051 120.481 277.639 120.631 277.186C121.741 273.828 130.938 269.256 141.601 263.983C149.538 260.048 158.546 255.579 165.637 250.841C173.837 245.362 178.143 240.398 178.802 235.681C179.723 229.048 182.168 224.393 185.854 222.23C190.048 219.779 195.784 220.418 202.931 224.125C216.058 230.923 248.106 239.038 267.571 239.038C274.285 239.038 279.514 238.07 281.94 235.743C283.407 234.342 283.821 232.509 283.162 230.284C280.999 222.931 283.501 215.33 288.974 212.632C295.838 209.253 303.418 214.156 309.944 222.004V220.974C307.386 217.966 304.79 215.618 302.176 213.929C297.38 210.819 292.603 210.16 288.748 212.075C283.012 214.897 280.379 222.807 282.636 230.469C283.219 232.447 282.861 234.033 281.582 235.269C277.539 239.141 264.468 239.471 245.698 236.155C229.487 233.291 212.015 228.121 203.194 223.548C195.878 219.758 189.973 219.141 185.629 221.674C181.773 223.919 179.234 228.739 178.275 235.578C176.846 245.815 157.192 255.579 141.394 263.406C130.185 268.967 121.327 273.355 120.142 276.959C119.935 277.577 119.954 278.154 120.199 278.69C121.252 281.079 123.828 281.491 128.587 280.028C132.969 278.669 139.175 275.765 147.018 272.078C159.186 266.351 175.868 258.503 197.27 251.026C214.817 244.909 230.07 245.609 242.595 253.107C249.385 257.185 255.253 263.2 260.03 270.986C264.111 277.66 267.364 285.631 269.414 294.056C270.919 300.235 274.21 305.385 279.213 309.36C283.256 312.573 288.447 315.045 294.616 316.714C299.299 317.97 304.584 318.753 310 319V318.423H309.944Z" fill="#848484"/>
<path d="M309.981 305.973C301.166 308.205 294.215 307.857 288.866 304.928C280.974 300.587 277.508 291.126 274.946 281.542C272.234 271.426 264.454 263.951 258.201 257.951C254 253.917 250.685 250.743 250.534 248.204C250.497 247.487 250.723 246.852 251.213 246.258C252.927 244.169 258.389 245.48 265.321 247.139C270.877 248.47 277.809 250.128 285.023 250.579C288.357 250.784 290.542 250.169 291.729 248.695C293.424 246.565 292.784 243.002 292.106 239.234C291.145 233.971 290.166 228.544 294.743 225.555C296.268 224.551 297.964 224.367 299.772 224.94C302.823 225.944 306.308 229.261 310 234.606V233.562C306.986 229.302 303.464 225.514 299.942 224.367C297.983 223.712 296.137 223.937 294.46 225.022C289.544 228.237 290.618 234.135 291.559 239.357C292.219 242.982 292.84 246.401 291.315 248.306C290.26 249.616 288.207 250.169 285.061 249.965C277.884 249.514 270.99 247.855 265.453 246.524C258.088 244.763 252.757 243.473 250.817 245.828C250.233 246.545 249.951 247.343 250.007 248.224C250.158 251.009 253.548 254.265 257.862 258.381C264.059 264.32 271.782 271.733 274.437 281.685C277.037 291.392 280.54 300.996 288.64 305.44C291.748 307.14 295.383 308 299.584 308C302.729 308 306.195 307.529 310 306.567V305.973H309.981Z" fill="#848484"/>
<path d="M310 290.103C305.585 291.361 300.198 292.082 295.821 290.247C292.604 288.906 290.265 286.308 288.881 282.554C286.973 277.357 283.625 272.531 280.931 268.654C278.275 264.838 275.993 261.538 276.704 260.053C277.153 259.125 278.78 258.775 281.679 258.96L282.652 259.022C291.332 259.6 295.709 259.888 297.86 257.723C298.907 256.671 299.413 255.021 299.469 252.402C299.562 248.793 301.302 245.782 303.808 244.895C305.679 244.235 307.793 244.75 310 246.318V245.555C307.157 243.657 304.949 243.843 303.64 244.317C300.909 245.287 299.001 248.525 298.907 252.402C298.851 254.835 298.402 256.341 297.486 257.269C295.503 259.27 290.957 258.96 282.689 258.403L281.717 258.342C278.518 258.135 276.778 258.589 276.199 259.765C275.319 261.6 277.471 264.714 280.463 269.045C283.138 272.902 286.468 277.687 288.339 282.802C289.779 286.72 292.229 289.422 295.597 290.845C297.579 291.67 299.749 292 301.919 292C304.781 292 307.624 291.443 309.981 290.783V290.103H310Z" fill="#848484"/>
<path d="M310 278.391C305.49 278.513 299.101 277.905 297.898 273.645C297.165 271.049 297.673 268.533 299.289 266.566C301.469 263.909 305.321 262.529 310 262.61V262.002C305.152 261.941 301.149 263.381 298.875 266.16C297.109 268.31 296.564 271.028 297.353 273.828C298.218 276.87 301.412 278.594 306.843 278.939C307.557 278.98 308.271 279 308.948 279C309.305 279 309.643 279 309.981 278.98V278.391H310Z" fill="#848484"/>
<path d="M68.7488 202.714C75.8854 205.919 82.701 209 87.3076 209C88.5537 209 89.6298 208.773 90.5172 208.276C91.7632 207.573 92.5562 206.312 92.896 204.554C93.7079 200.419 89.6865 196.428 83.5883 190.39C77.5468 184.414 69.2775 176.246 61.971 164.005C57.0245 155.713 52.3423 150.378 48.0189 148V148.682C52.1913 151.06 56.7036 156.271 61.499 164.336C68.8621 176.66 77.1503 184.848 83.2107 190.845C89.1578 196.738 93.1037 200.625 92.3485 204.409C92.0276 206.002 91.3479 207.077 90.2529 207.697C86.3448 209.951 77.9055 206.146 68.9754 202.114C63.0849 199.467 56.9868 196.717 51.7004 195.477C50.3788 195.166 49.1328 194.96 48 194.856V195.477C49.095 195.58 50.3033 195.766 51.5872 196.076C56.8168 197.338 62.8772 200.067 68.7488 202.714Z" fill="#848484"/>
<path d="M65.2276 192C67.1018 192 68.2911 191.482 68.7777 190.465C69.9671 187.914 66.381 183.05 58.0915 175.953C54.3432 172.764 50.4508 169.814 48 168V168.698C56.1994 174.738 70.1833 186.159 68.3092 190.186C67.9127 191.043 66.8315 191.422 65.3178 191.422C61.3352 191.422 54.2712 188.91 48 186.239V186.877C49.3515 187.455 50.7752 188.033 52.2168 188.591C58.0735 190.864 62.4345 192 65.2276 192Z" fill="#848484"/>
<path fill-rule="evenodd" clip-rule="evenodd" d="M146.924 239.438C147.921 237.615 148.974 235.972 150.083 234.53C153.611 229.923 158.913 227.519 164.252 228.08C167.393 228.421 168.981 229.623 169 231.686C169.037 238.516 149.88 252.778 141.252 253.78C139.996 253.94 139.036 254 138.315 254C136.763 254 136.246 253.7 136.061 253.259C135.692 252.337 137.022 251.015 139.239 248.812C141.603 246.468 144.836 243.264 146.924 239.438ZM158.045 244.465C164.492 239.498 168.501 234.59 168.483 231.706C168.464 230.003 167.042 229.002 164.252 228.701C163.753 228.641 163.255 228.621 162.756 228.621C158.1 228.621 153.63 230.905 150.545 234.911C149.455 236.313 148.42 237.955 147.441 239.738C145.336 243.609 142.087 246.831 139.709 249.189L139.645 249.253L139.561 249.336C137.999 250.893 136.398 252.487 136.616 252.998C136.745 253.319 137.65 253.599 141.234 253.179C145.187 252.718 151.782 249.293 158.045 244.465Z" fill="#848484"/>
<path d="M67.3087 130.049C71.5251 138.526 76.0413 147.25 80.4452 153.618C85.2987 160.601 89.5152 164 93.3568 164C93.3943 164 93.4318 164 93.4692 164C97.2921 163.939 100.665 160.58 103.776 153.782C110.316 139.509 118.056 130.786 126.17 128.595C131.717 127.1 137.414 128.574 143.092 133.018C147.458 136.438 150.569 137.564 152.555 136.479C155.498 134.881 155.666 128.923 155.854 122.042C156.06 114.486 156.285 105.906 160.426 101.975C162.356 100.152 164.942 99.4763 168.334 99.8859C177.217 100.992 185.668 99.5173 192.771 95.6676C199.517 92.0021 204.745 86.4119 207.875 79.4906C210.855 72.9174 211.717 65.5046 210.405 58.0919C209.861 54.9998 208.943 51.9692 207.688 49H207.05C211.435 59.1157 211.679 69.7639 207.388 79.2244C204.314 86.0228 199.18 91.5107 192.546 95.1147C185.537 98.9234 177.179 100.357 168.409 99.2715C164.905 98.8415 162.094 99.5787 160.07 101.504C155.741 105.599 155.516 114.322 155.291 122.001C155.123 128.411 154.954 134.472 152.312 135.905C150.513 136.888 147.608 135.762 143.41 132.486C137.582 127.94 131.736 126.424 126.02 127.96C117.737 130.213 109.866 139.038 103.27 153.475C100.253 160.048 97.0485 163.283 93.4692 163.345C93.4318 163.345 93.3943 163.345 93.3568 163.345C85.205 163.345 76.2662 146.738 67.7959 129.701C62.605 119.257 56.2897 112.09 49 108.282V108.957C56.1023 112.807 62.2489 119.851 67.3087 130.049Z" fill="#848484"/>
<path d="M74.1884 104C77.4115 104 80.2433 103.485 82.5721 102.436C87.8818 100.048 90.5273 95.1695 90.4342 87.8829C90.341 80.7403 92.0737 75.4296 95.7252 71.6628C104.724 62.3177 124.099 63.9233 144.63 65.6523C147.648 65.8993 150.778 66.1669 153.852 66.3933C156.852 66.6198 159.609 66.7227 162.143 66.7227C173.712 66.7227 180.27 64.4379 181.705 59.8888C182.711 56.6778 181.034 52.7874 178.351 49H177.625C180.382 52.7668 182.133 56.616 181.183 59.7036C179.544 64.9319 170.378 66.9903 153.908 65.7964C150.834 65.57 147.704 65.3024 144.686 65.0554C124.044 63.3263 104.537 61.7002 95.3526 71.2305C91.5893 75.1415 89.8007 80.5962 89.8939 87.924C89.987 94.9225 87.4533 99.6362 82.3858 101.9C75.8651 104.823 65.2644 103.485 53.2664 98.2365C51.8318 97.619 50.4159 96.9397 49 96.2399V96.9192C50.3414 97.5984 51.7014 98.2365 53.0614 98.8129C60.9049 102.23 68.208 104 74.1884 104Z" fill="#848484"/>
<path d="M63.5462 83.9594C70.2512 83.5122 75.9318 79.6707 80.4577 72.5366L81.2027 71.3577C86.6971 62.6992 89.4536 58.3496 93.5325 56.5407C97.6114 54.7317 103.143 55.3821 114.169 56.7033C115.51 56.8659 116.944 57.0285 118.453 57.2114C131.509 58.7561 140.971 59.2642 147.378 58.7764C153.543 58.3089 157.044 56.9472 158.385 54.4878C159.205 52.9837 159.167 51.1545 158.497 49H157.919C158.59 51.0732 158.664 52.8008 157.901 54.1829C156.672 56.439 153.226 57.7398 147.34 58.187C140.971 58.6545 131.546 58.1463 118.509 56.6016C117 56.4187 115.566 56.2561 114.225 56.0935C103.106 54.752 97.5369 54.0813 93.309 55.9715C89.0811 57.8618 86.2874 62.252 80.7371 71.0122L79.9921 72.1911C75.5593 79.1626 70.0277 82.9228 63.5089 83.3496C60.1564 83.5732 55.2953 82.9431 49 79.7317V80.4024C54.5316 83.187 58.9644 84 62.261 84C62.708 84 63.1364 83.9797 63.5462 83.9594Z" fill="#848484"/>
<path d="M70.8757 70.4568C73.6246 69.0404 75.5085 66.6305 76.4504 63.2904C77.8537 58.4283 78.1613 53.5239 77.9306 49H77.3539C77.5846 53.4605 77.277 58.3015 75.8929 63.1002C74.9894 66.2711 73.2017 68.5542 70.6065 69.886C64.4359 73.0781 54.8243 70.4568 48 67.8778V68.5542C52.5944 70.2877 58.3998 72 63.6285 72C66.2621 71.9789 68.7611 71.5561 70.8757 70.4568Z" fill="#848484"/>
<path d="M185.84 64.0704C182.133 72.0548 165.813 70.9725 165.626 70.9521C156.479 70.9521 147.983 70.2374 140.494 69.5839C129.353 68.6241 119.721 67.8073 112.605 69.829C108.841 70.8908 105.916 72.7082 103.681 75.3629C101.259 78.2218 99.6193 82.0813 98.6505 87.1252C95.4275 103.993 86.988 106.014 80.1879 107.627C76.0893 108.608 72.5495 109.445 71.3758 113.447C70.3139 117.103 71.5435 124.372 74.543 131.969C77.7474 140.116 82.1069 146.426 86.2055 148.836C87.5283 149.612 88.851 150 90.0992 150C92.4839 150 94.7382 148.611 96.713 145.895C99.7124 141.771 102.153 137.278 104.519 132.928C108.934 124.801 112.735 117.797 118.641 116.224C122.274 115.265 126.503 116.449 131.533 119.9C138.203 124.454 142.823 125.883 145.673 124.27C149.213 122.269 149.567 116.081 149.94 109.506C150.443 100.684 150.964 91.5564 159.236 91.9648C161.136 92.0465 162.962 92.1078 164.732 92.1078C182.617 92.1078 194.224 87.4723 199.235 78.2831C203.185 71.0746 202.179 62.3755 200.651 56.3718C199.924 53.4925 199.012 50.9604 198.211 49H197.596C198.415 50.9604 199.366 53.5946 200.111 56.5556C202.812 67.2355 200.856 74.0968 198.751 77.9767C193.348 87.8603 180.046 92.3732 159.255 91.3726C155.286 91.1888 152.641 93.0267 151.169 97.0087C149.884 100.46 149.623 105.054 149.381 109.506C149.027 115.898 148.673 121.922 145.412 123.76C142.748 125.271 138.314 123.841 131.812 119.41C126.633 115.877 122.274 114.652 118.492 115.673C112.362 117.307 108.487 124.413 104.016 132.663C101.669 136.992 99.228 141.464 96.2472 145.548C93.3409 149.53 90.0433 150.449 86.4291 148.326C82.4422 145.977 78.1573 139.79 75.0087 131.764C72.1211 124.413 70.8542 117.143 71.8602 113.672C72.9408 109.996 76.1638 109.22 80.2625 108.26C83.6904 107.444 87.5655 106.525 91.0307 103.625C95.0362 100.276 97.7004 94.9258 99.1535 87.2681C100.961 77.7725 105.134 72.5857 112.698 70.4416C115.865 69.5431 119.572 69.2163 123.69 69.2163C128.682 69.2163 134.327 69.7064 140.401 70.2169C147.909 70.85 156.404 71.5851 165.552 71.5851C165.552 71.5851 165.552 71.5851 165.57 71.5851C165.608 71.5851 169.818 71.8914 174.42 71.1563C180.679 70.1761 184.666 67.889 186.306 64.3767C188.076 60.558 186.939 55.4121 182.915 49.0204H182.244C186.343 55.3508 187.535 60.3947 185.84 64.0704Z" fill="#848484"/>
<path d="M187.048 71.8755C183.989 76.1309 174.738 77.8953 160.321 76.9819C149.372 76.2969 139.226 74.2834 139.133 74.2626C139.077 74.2419 132.885 73.0171 125.909 74.5325C121.787 75.4043 118.206 77.0442 115.241 79.4107C111.529 82.3583 108.788 86.4269 107.109 91.4919C103.864 101.31 100.227 108.015 95.9742 112.001C92.2813 115.468 88.6816 116.381 85.3244 117.024C80.4192 117.958 78.7592 121.446 78.237 124.207C77.1925 129.604 79.7104 136.89 83.6272 139.817C84.6903 140.606 85.772 141 86.8165 141C87.7864 141 88.7376 140.668 89.6328 139.983C93.3071 137.201 97.0746 131.846 101.066 126.199C108.657 115.426 116.509 104.3 124.399 109.884C125.555 110.693 126.674 111.503 127.737 112.292C133.519 116.505 138.107 119.847 140.998 118.27C142.714 117.336 143.684 114.866 144.038 110.465C144.766 101.373 146.108 94.5226 150.305 90.6616C153.289 87.9007 157.542 86.8836 163.323 87.5063C179.513 89.2708 190.181 86.074 195.049 78.0406C198.947 71.6056 198.276 63.2401 197.026 57.3448C196.317 54.0027 195.347 51.0551 194.583 49H193.986C194.751 51.0343 195.758 54.0442 196.485 57.4901C197.697 63.2608 198.35 71.4395 194.583 77.6877C189.845 85.5135 179.345 88.6065 163.379 86.8836C157.448 86.2401 153.065 87.3195 149.951 90.1841C145.623 94.1904 144.225 101.165 143.479 110.423C143.143 114.533 142.266 116.921 140.756 117.73C138.144 119.142 133.687 115.903 128.054 111.793C126.972 111.005 125.853 110.195 124.697 109.385C120.948 106.728 116.901 107.393 112.331 111.42C108.34 114.907 104.423 120.47 100.637 125.847C96.6829 131.472 92.9341 136.765 89.3344 139.505C87.2268 141.104 85.2498 140.294 83.9442 139.319C80.1954 136.516 77.7894 129.521 78.7779 124.352C79.2815 121.778 80.8295 118.519 85.4177 117.647C88.8495 116.983 92.5237 116.049 96.3286 112.478C100.656 108.41 104.349 101.622 107.631 91.6995C109.272 86.7383 111.94 82.7735 115.539 79.9088C118.43 77.6047 121.955 76.0063 125.984 75.1345C128.595 74.574 131.094 74.3872 133.202 74.3872C136.634 74.3872 138.984 74.8646 139.021 74.8646C139.114 74.8854 149.298 76.8989 160.283 77.5839C175.092 78.5181 184.25 76.7329 187.477 72.2491C190.666 67.8276 191.412 61.8908 189.621 55.0199C189.006 52.6742 188.204 50.5984 187.495 49H186.861C187.589 50.5776 188.446 52.7365 189.081 55.1859C190.293 59.8565 190.927 66.4991 187.048 71.8755Z" fill="#848484"/>
<path fill-rule="evenodd" clip-rule="evenodd" d="M127.93 79.9993C129.927 78.9328 132.149 78.7072 134.203 79.384C136.201 80.0403 137.713 81.4145 138.684 83.4654C141.597 89.6389 139.02 100.488 137.228 106.395C136.761 107.954 136.182 108.774 135.417 108.959C135.305 108.979 135.193 109 135.081 109C133.837 109 132.408 107.398 130.63 105.404L130.6 105.37C128.9 103.462 126.977 101.309 124.662 99.7912C120.797 97.248 118.893 94.3971 119.005 91.2796C119.21 85.8446 125.689 81.2094 127.93 79.9993ZM135.305 108.364C135.846 108.221 136.313 107.523 136.705 106.211C140.813 92.6333 139.394 86.3163 138.18 83.7731C137.284 81.8862 135.883 80.6146 134.035 79.9993C133.307 79.7532 132.56 79.6301 131.794 79.6301C130.562 79.6301 129.33 79.9378 128.172 80.5531C126.006 81.7221 119.752 86.1727 119.565 91.3001C119.453 94.1715 121.283 96.8583 124.961 99.2579C127.31 100.782 129.329 103.05 130.964 104.887L131.01 104.939L131.031 104.963C132.778 106.922 134.282 108.609 135.305 108.364Z" fill="#848484"/>
<path fill-rule="evenodd" clip-rule="evenodd" d="M129.5 90.3436C130.075 89.982 130.716 89.8969 131.308 90.1309C131.9 90.3648 132.344 90.8328 132.623 91.5559C133.445 93.5978 132.738 97.1073 132.245 99.0216C132.163 99.3832 131.999 99.8724 131.637 99.9787C131.588 100 131.555 100 131.505 100C131.098 100 130.707 99.4783 130.189 98.7864L130.174 98.7664C129.73 98.1708 129.221 97.4902 128.612 97.0222C127.511 96.1715 126.969 95.193 127.001 94.1083C127.063 92.0754 129.188 90.5655 129.469 90.3658C129.488 90.3524 129.499 90.3449 129.5 90.3436ZM131.538 99.3406C131.588 99.3406 131.686 99.1705 131.785 98.8089C132.146 97.3413 132.952 93.7254 132.212 91.8324C131.982 91.2794 131.653 90.9178 131.193 90.7477C131.012 90.6839 130.815 90.6413 130.634 90.6413C130.322 90.6413 130.026 90.7264 129.73 90.9178C129.286 91.2156 127.56 92.5981 127.511 94.1508C127.478 94.9591 127.938 95.7461 128.875 96.4692C129.533 96.9797 130.092 97.7241 130.536 98.3197C130.558 98.3486 130.581 98.378 130.604 98.4078C130.953 98.8612 131.369 99.4005 131.538 99.3406Z" fill="#848484"/>
<path d="M310 96.1191C299.65 88.1101 287.184 81.4427 277.302 85.1829C270.152 87.8865 265.193 95.7736 262.591 108.621C261.393 114.556 258.398 118.296 253.701 119.74C244.904 122.464 230.829 116.203 221.003 105.165C213.123 96.3427 209.96 86.6465 212.318 78.5765C214.508 71.096 215.126 62.965 214.171 54.4478C213.965 52.6386 213.685 50.8295 213.348 49H212.767C213.123 50.8701 213.404 52.6996 213.61 54.5291C214.564 62.965 213.947 71.0147 211.794 78.4139C209.361 86.7075 212.58 96.607 220.61 105.612C225.289 110.857 231.166 115.268 237.174 118.032C241.441 120.004 245.559 121 249.19 121C250.874 121 252.447 120.776 253.869 120.35C258.698 118.866 261.917 114.861 263.152 108.763C265.717 96.1395 270.527 88.415 277.489 85.7724C287.259 82.0728 299.706 88.8622 310 96.8916V96.1191Z" fill="#848484"/>
<path d="M310 80.4951C302.391 73.3575 290.456 67.0381 280.758 69.1855C274.735 70.5148 270.147 74.9118 267.145 82.213C262.986 92.3159 257.708 99.3921 251.442 103.278C244.728 107.429 238.761 106.734 234.938 105.425C230.313 103.83 226.322 100.476 223.692 95.9767C220.97 91.3343 219.963 85.8533 220.876 80.5564C222.76 69.5536 223.487 58.9598 223.021 49H222.462C222.909 58.8984 222.2 69.4718 220.336 80.4337C219.403 85.8942 220.429 91.5183 223.226 96.2835C225.93 100.905 230.033 104.341 234.789 105.977C236.784 106.673 238.835 107 240.887 107C244.561 107 248.272 105.916 251.722 103.789C258.1 99.842 263.452 92.6636 267.667 82.4379C270.595 75.3209 275.033 71.067 280.87 69.7581C285.607 68.7151 291.295 69.6559 297.319 72.519C301.832 74.6664 306.382 77.8159 310 81.2927V80.4951Z" fill="#848484"/>
<path d="M187.791 329.615C187.315 329.132 186.711 328.939 186.016 329.016C183.655 329.287 180.434 332.855 178 336H178.714C181.038 333.029 184.003 329.846 186.071 329.595C186.601 329.537 187.041 329.672 187.407 330.039C188.669 331.293 190.078 333.589 191.359 336H192C190.664 333.454 189.145 330.984 187.791 329.615Z" fill="#848484"/>
<path d="M310 68.7089C308.461 68.8545 306.753 68.8545 304.932 68.6674C298.532 68.0021 290.8 65.2578 283.705 61.0998C275.484 56.2765 268.615 63.4699 260.676 71.7859C254.632 78.1268 247.782 85.2994 239.298 87.8981C236.314 88.8129 234.005 88.3347 232.41 86.526C226.986 80.3098 230.608 59.9563 233.086 49H232.504C231.753 52.3472 230.89 56.526 230.214 60.8919C228.131 74.4678 228.731 83.2412 231.997 86.9834C233.179 88.3347 234.7 89 236.539 89C237.44 89 238.397 88.8337 239.448 88.5218C248.044 85.9023 254.97 78.6674 261.051 72.264C268.84 64.1143 275.559 57.0665 283.423 61.6819C290.668 65.9439 298.288 68.6466 304.857 69.3118C306.697 69.499 308.423 69.5198 309.981 69.3742V68.7089H310Z" fill="#848484"/>
<path d="M240.969 75.9387C241.27 75.9796 241.553 76 241.854 76C246.868 76 252.466 70.0318 255.463 66.3119C259.441 61.4065 263.305 55.0295 266 49H265.378C262.72 54.8864 258.932 61.0999 255.049 65.9031C249.696 72.5254 244.72 75.8774 241.044 75.3255C239.517 75.1007 238.518 74.3444 237.99 73.0568C236.011 68.1514 241.364 56.7464 245.568 49.0204H244.908C244.079 50.5738 243.193 52.2498 242.345 53.9871C237.727 63.4095 236.087 69.9092 237.482 73.302C238.066 74.7941 239.253 75.6934 240.969 75.9387Z" fill="#848484"/>
<path d="M247.709 62.9788C247.825 63 247.961 63 248.097 63C249.261 63 251.104 62.2364 253.665 59.0333C255.566 56.6788 257.39 53.4758 258.457 50.6758C258.631 50.2091 258.825 49.6364 259 49.0212H258.399C258.263 49.4667 258.108 49.9333 257.933 50.4212C255.741 56.1909 250.735 62.7879 247.806 62.3212C247.263 62.2364 246.913 61.9818 246.719 61.5152C245.73 59.0545 249.746 51.7788 251.473 49H250.774C249.533 51.0576 245.012 58.8 246.196 61.7697C246.448 62.4485 246.952 62.8515 247.709 62.9788Z" fill="#848484"/>
<path d="M309.982 60.5761C307.511 62.1224 304.644 62.6866 301.434 62.206C297.845 61.6836 293.824 59.9284 289.46 56.9821C285.654 54.4119 282.246 51.3612 279.83 49H279C281.471 51.4448 285.095 54.7672 289.189 57.5254C293.625 60.5134 297.719 62.3104 301.38 62.8328C302.137 62.9373 302.877 63 303.616 63C305.96 63 308.088 62.4358 310 61.2866V60.5761H309.982Z" fill="#848484"/>
<path fill-rule="evenodd" clip-rule="evenodd" d="M189.4 232.79C192.981 230.464 199.187 230.401 207.849 232.624C213.834 234.171 218.976 236.321 219.714 236.629C219.739 236.64 219.759 236.648 219.774 236.654C225.342 237.797 226.036 238.815 225.999 239.563C225.961 240.581 224.461 241.973 213.137 243.842C206.106 245.006 197.725 245.961 191.612 246.647L190.094 246.813C188.988 246.938 187.994 247 187.094 247C183.663 247 181.657 246.086 181.132 244.299C180.175 241.079 184.581 235.927 189.4 232.79ZM213.024 243.24C224.142 241.391 225.38 240.041 225.399 239.542C225.417 239.293 225.024 238.379 219.605 237.257L219.549 237.236C219.546 237.235 219.529 237.228 219.499 237.215C218.94 236.979 213.751 234.784 207.699 233.227C204.418 232.375 200.5 231.627 196.937 231.627C194.144 231.627 191.556 232.105 189.663 233.33C187.281 234.888 185.05 236.904 183.532 238.877C181.938 240.975 181.263 242.824 181.638 244.112C182.219 246.024 185.106 246.751 190 246.19L191.537 246.044C191.989 245.992 192.453 245.939 192.928 245.884C198.878 245.199 206.53 244.317 213.024 243.24Z" fill="#848484"/>
<path fill-rule="evenodd" clip-rule="evenodd" d="M194.008 102.273C193.853 100.712 195.971 98.8774 200.285 96.7894C203.122 95.4235 206.484 95.8528 208.854 97.9017C210.72 99.5214 212.741 101.824 211.73 103.736C210.953 105.219 208.485 106 205.201 106C203.005 106 200.44 105.649 197.758 104.927C195.329 104.283 194.105 103.405 194.008 102.273ZM197.894 104.361C204.093 106.039 210.059 105.629 211.206 103.463C211.866 102.234 210.914 100.458 208.466 98.3506C207.105 97.1992 205.415 96.5943 203.705 96.5943C202.616 96.5943 201.528 96.8285 200.518 97.3163C196.573 99.2287 194.455 100.965 194.572 102.214C194.649 103.053 195.796 103.795 197.894 104.361Z" fill="#848484"/>
<path d="M253.295 329.664C243.489 328.315 237.729 319.281 230.464 307.835C228.431 304.646 226.323 301.335 223.951 297.901C218.003 289.296 211.34 284.125 204.169 282.531C196.019 280.732 187.059 283.512 177.554 290.788C167.108 298.78 151.994 311.636 139.025 323.573C135.392 326.925 130.649 331.381 126 336H126.828C130.517 332.362 134.715 328.356 139.383 324.043C152.332 312.127 167.428 299.27 177.855 291.299C195.567 277.748 210.926 280.098 223.481 298.289C225.833 301.703 227.941 305.014 229.974 308.202C237.334 319.771 243.15 328.887 253.201 330.277C260.335 331.258 264.419 333.179 265.398 336H266C265.078 332.832 260.805 330.706 253.295 329.664Z" fill="#848484"/>
<path d="M200.137 306.129C196.6 304.445 192.97 304.648 189.339 306.718C180.338 311.831 172.179 317.879 165.087 324.717C160.726 328.918 157.433 332.773 155 336H155.749C161.288 328.756 171.992 317.25 189.582 307.245C193.063 305.277 196.525 305.074 199.894 306.677C206.687 309.904 212.001 319.847 215.257 327.639C216.511 330.602 217.559 333.504 218.401 336H219C218.139 333.443 217.073 330.46 215.781 327.396C210.991 315.931 205.713 308.767 200.137 306.129Z" fill="#848484"/>
<path opacity="0.459984" d="M276.075 209.796C276.616 209.939 277.118 210 277.601 210C280.19 210 282.006 208.065 282.682 205.987C283.494 203.44 282.856 200.018 279.533 198.551C274.162 196.167 270.394 195.454 268.307 196.412C267.361 196.839 266.916 197.858 267.013 199.284C267.148 201.097 268.172 203.359 269.757 205.355C271.534 207.596 273.775 209.165 276.075 209.796Z" fill="#848484" stroke="#575757" stroke-width="5"/>
<path fill-rule="evenodd" clip-rule="evenodd" d="M111.387 263.855C110.692 262.369 110.811 260.224 112.758 259.027C115.699 257.232 119.673 258.058 121.243 259.46C121.918 260.059 122.156 260.76 121.898 261.42C121.382 262.823 119.395 264.267 116.017 265.691C115.52 265.897 115.023 266 114.566 266C113.096 266 111.944 265.01 111.387 263.855ZM115.798 265.113C118.977 263.772 120.905 262.41 121.362 261.193C121.56 260.678 121.203 260.224 120.845 259.935C120.011 259.192 118.361 258.635 116.613 258.635C115.401 258.635 114.149 258.903 113.056 259.564C111.427 260.554 111.308 262.287 111.924 263.566C112.54 264.845 114.01 265.876 115.798 265.113Z" fill="#848484"/>
<path fill-rule="evenodd" clip-rule="evenodd" d="M142.923 315.189C142.188 317.176 134.21 321.512 131.57 322.656C131.004 322.917 130.476 323.018 129.948 322.998C128.326 322.998 127.062 321.894 126.44 320.569C125.648 318.883 125.799 316.454 127.949 315.109C131.721 312.74 140.792 312.359 142.602 314.005C142.98 314.326 143.093 314.748 142.923 315.189ZM128.232 315.631C126.383 316.795 126.251 318.822 126.949 320.308C127.647 321.793 129.325 322.998 131.343 322.094C134.681 320.629 141.792 316.534 142.376 314.968C142.433 314.828 142.452 314.667 142.225 314.467C140.603 313.001 131.683 313.463 128.232 315.631Z" fill="#848484"/>
<path d="M63.8917 62.3213C67.0505 60.169 65.9976 53.3241 64.9641 49H64.3596C64.6326 50.0859 64.8861 51.3463 65.1006 52.6648C65.6076 56.0194 65.7636 60.3435 63.5602 61.856C60.9863 63.6011 55.7606 61.313 48 55.0499V55.8061C53.9862 60.5956 58.5294 63 61.5713 63C62.4682 62.9806 63.2482 62.7673 63.8917 62.3213Z" fill="#848484"/>
<path fill-rule="evenodd" clip-rule="evenodd" d="M174.586 199C171.861 199 168.95 198.709 166.873 197.873C163.907 196.688 163.758 194.921 164.166 193.638C164.593 192.259 165.464 191.249 166.781 190.647C169.135 189.578 172.844 189.831 177.794 191.424C181.447 192.609 184.469 194.105 184.506 194.124C186.063 194.94 186.119 195.717 185.915 196.222C185.303 197.679 181.447 198.534 178.054 198.845C176.997 198.942 175.81 199 174.586 199ZM167.003 191.171C165.835 191.696 165.056 192.589 164.686 193.813C164.222 195.328 165.019 196.513 167.096 197.329C169.543 198.301 173.734 198.65 178.017 198.262C181.966 197.893 185.007 196.96 185.414 195.989C185.618 195.484 184.895 194.979 184.265 194.649C184.08 194.551 176.033 190.589 170.248 190.589C169.043 190.589 167.93 190.744 167.003 191.171Z" fill="#848484"/>
<path d="M276.428 316.59C266.535 314.641 265.355 307.353 263.856 298.115C262.17 287.801 260.09 274.969 244.952 264.737C237.363 259.62 230.094 256.412 222.712 254.93C216.117 253.611 209.559 253.692 202.702 255.194C189.962 257.996 177.933 265.468 166.28 272.675C155.375 279.436 144.096 286.44 131.955 289.892C125.435 291.76 119.215 292.45 112.939 292.044C105.894 291.577 98.9616 289.73 91.767 286.38C79.1952 280.532 66.6984 278.502 54.6325 280.329C52.4029 280.674 50.1921 281.141 48 281.75V282.38C50.2296 281.771 52.4591 281.284 54.7262 280.938C66.6984 279.111 79.0828 281.141 91.5609 286.928C100.423 291.049 108.629 292.755 116.367 292.755C135.047 292.755 150.991 282.867 166.561 273.223C178.701 265.691 190.149 258.585 202.815 255.803C209.597 254.301 216.08 254.22 222.6 255.539C229.925 257.001 237.139 260.189 244.652 265.264C251.303 269.751 259.584 275.335 263.313 298.216C264.081 302.987 264.755 307.109 266.535 310.418C268.503 314.093 271.631 316.245 276.334 317.179C290.255 319.94 298.536 324.305 302.377 330.924C303.295 332.488 303.97 334.193 304.419 336H305C304.532 334.071 303.838 332.285 302.845 330.599C298.911 323.839 290.517 319.372 276.428 316.59Z" fill="#848484"/>
<path d="M265.555 323.324C253.77 321.427 252.665 317.612 250.267 309.296C248.169 302.05 245.002 291.069 232.618 275.144C215.963 253.708 198.295 267.11 177.836 282.632C157.096 298.376 133.583 316.199 104.881 303.362C93.8829 298.437 82.7916 296.014 71.8876 296.115C63.7752 296.196 55.7377 297.69 48 300.556V301.202C55.7377 298.316 63.7564 296.822 71.8876 296.741C82.7166 296.62 93.733 299.062 104.656 303.947C117.583 309.74 130.642 309.841 144.543 304.29C156.703 299.426 167.607 291.15 178.155 283.157C188.272 275.487 197.827 268.241 206.763 265.657C216.637 262.791 224.712 265.94 232.187 275.568C244.496 291.412 247.644 302.312 249.724 309.518C252.122 317.834 253.34 322.012 265.48 323.97C272.581 325.121 277.021 327.946 278.689 332.367C279.101 333.477 279.344 334.688 279.438 336H280C279.925 334.607 279.663 333.315 279.213 332.145C277.452 327.462 272.862 324.515 265.555 323.324Z" fill="#848484"/>
<path d="M206.441 295.724C201.243 291.965 194.269 292.087 185.724 296.151C178.937 299.361 171.14 305.051 162.539 313.017C153.752 321.186 145.899 330.127 141 336H141.748C146.647 330.127 154.313 321.43 162.895 313.464C171.458 305.519 179.199 299.87 185.93 296.679C194.287 292.717 201.075 292.554 206.104 296.212C217.79 304.686 223.998 318.991 229.476 331.611C230.13 333.094 230.747 334.557 231.383 335.98H232C231.327 334.476 230.654 332.932 229.981 331.347C224.502 318.666 218.257 304.279 206.441 295.724Z" fill="#848484"/>
<path d="M192.532 317.365C190.137 315.505 187.041 315.546 183.337 317.486C180.425 319.022 177.126 321.731 173.532 325.551C170.105 329.209 167.027 333.191 165 336H165.719C171.468 328.138 184.645 311.989 192.201 317.85C197.084 321.65 199.941 329.189 202.41 336H203C200.494 329.067 197.6 321.306 192.532 317.365Z" fill="#848484"/>
<path d="M99.7985 317.11C95.0048 315.797 90.0432 314.443 85.5852 312.831C74.5241 308.79 61.7097 312.194 52.9057 315.757C51.171 316.454 49.5295 317.19 48 317.927V318.583C49.5855 317.827 51.3015 317.051 53.1108 316.314C61.8216 312.791 74.5055 309.427 85.3986 313.408C89.8566 315.04 94.8369 316.394 99.6493 317.708C110.468 320.653 120.69 323.44 121.398 328.496C121.697 330.626 120.316 333.114 117.22 336H118.041C120.969 333.114 122.256 330.606 121.958 328.396C121.174 322.943 111.27 320.235 99.7985 317.11Z" fill="#848484"/>
<path d="M93.3179 325.496C89.5761 324.796 85.0216 324.837 80.8262 325.62C73.059 327.061 57.8649 331.675 48 334.785V335.423C57.8649 332.313 73.1535 327.679 80.9396 326.217C85.0783 325.455 89.5572 325.393 93.2423 326.093C98.5716 327.103 100.443 329.224 101.085 330.851C101.671 332.313 101.52 334.043 100.65 336H101.293C102.124 333.982 102.219 332.169 101.595 330.604C100.329 327.432 96.3983 326.073 93.3179 325.496Z" fill="#848484"/>
<path d="M70.9517 212.061C79.3928 218.262 84.9019 227.156 89.7388 235.009C95.2292 243.902 99.9914 251.593 107.424 252.837C108.115 252.959 108.825 253 109.534 253C115.268 253 122.084 249.39 130.731 241.781C137.211 236.07 142.608 230.888 147.37 226.299C157.417 216.61 164.682 209.613 172.712 207.349C180.91 205.024 189.912 207.471 203.769 215.773C215.086 222.566 228.588 227.237 240.783 228.583C246.46 229.216 251.614 229.093 255.704 228.196C260.018 227.258 263.043 225.565 264.668 223.137C266.89 219.812 267.432 213.632 257.329 203.045C245.246 190.378 231.501 188.848 216.953 187.237C207.317 186.176 197.345 185.054 187.279 180.628C175.887 175.63 166.008 166.94 157.062 154.11C150.451 144.625 142.739 140.137 134.727 141.137C129.274 141.81 123.914 144.951 118.797 150.438C113.662 155.987 109.03 163.636 105.071 173.182C102.12 180.26 98.8709 183.891 95.0798 184.258C86.8815 185.054 77.3946 170 68.2438 155.436C63.6684 148.154 58.9436 140.647 54.4429 135.262C52.1085 132.427 49.9796 130.367 48 129V129.755C54.2935 134.283 61.1286 145.135 67.7956 155.742C72.3896 163.044 77.1518 170.612 81.7272 176.12C86.62 181.994 90.8033 184.87 94.4822 184.87C94.7063 184.87 94.9304 184.85 95.1545 184.83C99.151 184.442 102.569 180.709 105.594 173.407C109.534 163.922 114.11 156.333 119.208 150.846C124.232 145.441 129.479 142.361 134.802 141.708C142.589 140.749 150.153 145.155 156.633 154.457C165.634 167.389 175.607 176.12 187.073 181.158C197.214 185.625 207.224 186.727 216.897 187.808C231.352 189.419 245.003 190.929 256.955 203.453C266.778 213.754 266.33 219.629 264.239 222.75C261.176 227.298 252.436 229.236 240.857 227.951C228.737 226.605 215.31 221.954 204.049 215.202C190.061 206.819 180.948 204.371 172.581 206.737C164.42 209.042 157.118 216.079 147.015 225.83C142.253 230.419 136.875 235.6 130.394 241.291C120.795 249.736 113.531 253.204 107.517 252.204C100.328 251.021 95.6401 243.433 90.2057 234.642C85.3315 226.748 79.8036 217.813 71.2691 211.531C64.1913 206.329 57.4496 203.718 51.1561 203.718C50.0916 203.718 49.0458 203.8 48 203.943V204.555C55.0779 203.555 62.772 206.044 70.9517 212.061Z" fill="#848484"/>
<path d="M58.5254 272.734C67.2121 272.878 76.9307 274.788 85.5049 276.452C97.7938 278.855 107.475 280.745 108.676 276.39C110.477 269.859 104.623 264.456 94.9045 255.521C87.9439 249.113 79.2572 241.143 69.9701 229.682C62.9907 221.096 56.0301 217.193 49.3133 218.138C48.9006 218.2 48.469 218.282 48 218.385V219.022C48.4503 218.919 48.9193 218.816 49.3884 218.754C55.9175 217.851 62.6905 221.671 69.5573 230.113C78.8819 241.616 87.5687 249.606 94.5481 256.035C104.079 264.806 109.839 270.105 108.15 276.247C107.1 280.067 97.1372 278.116 85.6174 275.877C73.1784 273.433 58.5629 270.577 48 273.063V273.7C51.0019 272.981 54.4916 272.673 58.5254 272.734Z" fill="#848484"/>
<path d="M83.6725 270C88.6033 270 91.3722 269.023 91.9032 267.047C93.079 262.743 83.2742 254.986 77.3004 250.744C68.8611 244.734 58.8099 239.078 53.4049 237.269C51.6033 236.665 49.7827 236.25 48 236V236.624C49.7258 236.873 51.4895 237.289 53.2342 237.872C58.6012 239.66 68.5956 245.275 76.978 251.264C86.7448 258.23 92.1118 264.053 91.3342 266.86C90.5756 269.605 83.8242 270.104 72.3127 268.274C63.001 266.818 53.2722 264.261 48.019 262.639V263.283C53.3291 264.926 63.001 267.442 72.2558 268.919C76.8642 269.646 80.6761 270 83.6725 270Z" fill="#848484"/>
<path d="M59.1797 258C61.442 258 62.7051 257.52 62.9502 256.56C63.4781 254.641 59.7075 251.449 56.446 249.112C53.637 247.088 50.432 245.168 48 244V244.689C50.3754 245.857 53.4484 247.714 56.1444 249.654C60.3297 252.659 62.724 255.246 62.4035 256.393C61.8945 258.25 54.3345 257.207 48 255.642V256.268C49.9041 256.727 52.0345 257.186 54.1083 257.52C56.1821 257.833 57.86 258 59.1797 258Z" fill="#848484"/>
<path fill-rule="evenodd" clip-rule="evenodd" d="M111.652 242C111.112 242 110.591 241.939 110.088 241.796C105.525 240.569 101.893 237.013 99.5837 231.556C97.2557 225.997 96.4734 218.824 97.3488 210.792C98.1496 203.557 100.478 196.383 104.128 190.047C117.109 167.463 127.893 155.078 136.18 153.239C138.844 152.646 141.283 153.157 143.388 154.772C151.281 160.788 156.429 166.645 160.97 171.81L161.137 172.001L161.178 172.047C168.198 180.037 173.75 186.355 185.907 190.006C193.599 192.316 197.231 194.441 196.989 196.526C196.802 198.141 194.195 199.428 189.222 200.368C184.399 201.268 177.433 201.819 169.089 201.942C162.794 202.044 156.257 204.721 149.087 210.178C142.829 214.961 136.907 221.194 131.673 226.713C123.944 234.867 117.184 242 111.652 242ZM104.612 190.374C101.018 196.628 98.7084 203.72 97.9261 210.873C97.0694 218.783 97.833 225.854 100.124 231.311C102.34 236.604 105.841 240.038 110.237 241.223C110.702 241.346 111.187 241.407 111.671 241.407C116.96 241.407 123.646 234.357 131.281 226.305L131.282 226.304C136.516 220.765 142.457 214.511 148.77 209.708C156.034 204.19 162.683 201.451 169.089 201.349C177.415 201.227 184.343 200.675 189.129 199.776C195.294 198.611 196.355 197.2 196.449 196.465C196.709 194.135 189.073 191.58 185.777 190.599C173.448 186.879 167.842 180.503 160.764 172.43L160.688 172.343C156.144 167.173 150.998 161.319 143.09 155.283C141.637 154.179 140.036 153.627 138.285 153.627C137.652 153.627 136.981 153.709 136.311 153.852C128.191 155.65 117.519 167.933 104.612 190.374Z" fill="#848484"/>
<path fill-rule="evenodd" clip-rule="evenodd" d="M244.132 219.862C235.398 218.481 225.435 216.185 219.551 214.62C209.718 212.019 205.509 209.723 205.044 206.675C204.615 203.932 207.334 200.621 213.573 196.252C216.981 193.875 221.413 193.367 226.795 194.789C231.059 195.907 235.92 198.223 241.246 201.677C250.11 207.427 257.354 214.457 257.708 214.803C260.315 216.814 261.358 218.318 260.892 219.435C260.445 220.472 258.658 221 255.455 221C252.717 221 248.955 220.614 244.132 219.862ZM221.189 194.606C218.359 194.606 215.919 195.338 213.871 196.76C207.93 200.925 205.23 204.136 205.584 206.533C206.105 209.967 212.995 212.243 219.662 214.01C235.827 218.298 258.974 222.483 260.352 219.171C260.539 218.724 260.408 217.627 257.354 215.27L257.336 215.25C257.331 215.246 257.303 215.219 257.252 215.17C256.414 214.369 249.425 207.681 240.948 202.185C235.678 198.772 230.873 196.476 226.664 195.378C224.709 194.87 222.884 194.606 221.189 194.606Z" fill="#848484"/>
<path fill-rule="evenodd" clip-rule="evenodd" d="M236.579 211.559C233.36 211.014 229.671 210.111 227.5 209.503C224.372 208.622 222.256 207.719 222.021 206.208C221.84 205.033 222.835 203.711 225.24 201.928C227.555 200.186 231.063 200.899 235.62 204.047C238.858 206.271 241.516 208.999 241.715 209.209C242.438 209.797 243.216 210.573 242.945 211.266C242.8 211.643 242.384 212 240.793 212C239.852 212 238.514 211.874 236.579 211.559ZM228.151 201.655C227.193 201.655 226.307 201.907 225.547 202.473C223.449 204.026 222.437 205.264 222.545 206.103C222.726 207.342 225.204 208.202 227.609 208.873C235.693 211.161 242.095 211.874 242.438 211.014C242.438 211.014 242.547 210.699 241.389 209.734L241.371 209.713C241.368 209.71 241.355 209.697 241.333 209.674C240.733 209.067 233.417 201.655 228.151 201.655Z" fill="#848484"/>
<path d="M280.51 99.7734C275.966 101.601 273.273 106.366 269.515 112.978C267.701 116.182 265.625 119.817 263.026 123.678C254.573 136.144 246.065 131.564 231.965 123.986C224.691 120.064 215.621 115.196 204.42 111.664C188.132 106.53 177.268 106.797 171.209 112.486C165.655 117.702 163.897 127.334 165.655 142.798C167.188 156.208 176.351 166.538 192.882 173.521C208.459 180.092 226.897 181.961 236.49 182.516C253.171 183.44 267.813 186.274 280.043 190.895C289.804 194.591 298.051 199.438 304.54 205.311C306.671 207.242 308.485 209.152 310 211V210.096C308.56 208.412 306.896 206.646 304.951 204.88C298.406 198.945 290.103 194.057 280.267 190.34C267.981 185.699 253.264 182.865 236.528 181.92C226.953 181.386 208.59 179.517 193.088 172.966C176.763 166.086 167.712 155.921 166.216 142.757C164.477 127.518 166.178 118.072 171.583 112.999C177.492 107.454 188.188 107.208 204.27 112.301C215.434 115.833 224.466 120.68 231.722 124.582C238.884 128.443 244.55 131.482 249.599 132.016C255.078 132.591 259.36 130.147 263.474 124.089C266.092 120.228 268.168 116.572 270.001 113.348C273.685 106.838 276.359 102.135 280.716 100.39C285.316 98.5412 291.543 100.102 301.566 105.606C304.614 107.29 307.419 109.138 310 111.089V110.309C307.494 108.419 304.764 106.653 301.809 105.031C291.618 99.4448 285.26 97.8635 280.51 99.7734Z" fill="#848484"/>
<path d="M291.574 119.007C286.972 119.152 283.081 121.565 280.013 126.186C277.226 130.374 275.262 134.191 273.503 137.533C267.854 148.364 265.272 153.315 247.968 145.826C242.918 143.64 236.969 140.462 230.665 137.1C213.305 127.816 193.625 117.295 183.206 122.411C180.063 123.938 177.912 126.867 176.808 131.076C175.312 136.77 175.891 141.927 178.566 146.404C182.457 152.902 190.651 158.06 203.596 162.186C213.66 165.404 226.624 167.983 244.358 170.335C261.774 172.646 279.807 178.793 295.109 187.623C300.815 190.924 305.885 194.472 310 198V197.175C305.941 193.75 301.002 190.326 295.353 187.066C279.994 178.195 261.886 172.027 244.395 169.716C226.68 167.364 213.754 164.785 203.727 161.567C190.913 157.482 182.832 152.387 179.015 146.033C176.434 141.721 175.873 136.749 177.313 131.22C178.398 127.135 180.381 124.433 183.393 122.968C193.588 117.976 213.137 128.435 230.384 137.657C236.688 141.04 242.656 144.217 247.725 146.404C256.274 150.097 261.531 150.922 265.31 149.127C268.957 147.394 271.053 143.392 273.933 137.842C275.673 134.5 277.637 130.725 280.406 126.558C283.362 122.102 287.103 119.77 291.536 119.626C297.785 119.44 304.575 123.649 309.981 128.126V127.342C301.488 120.327 295.353 118.883 291.574 119.007Z" fill="#848484"/>
<path d="M290.579 134.134C287.267 134.744 284.821 137.548 283.297 142.464C278.742 157.113 268.091 156.118 261.034 155.467C257.195 155.102 254.41 154.858 254.071 157.235C253.639 160.242 255.163 162.558 258.927 164.488C262.276 166.215 267.094 167.556 272.664 169.08C284.332 172.29 299.273 176.415 309.981 187V186.167C299.217 175.765 284.388 171.681 272.796 168.491C261.731 165.443 253.751 163.249 254.617 157.316C254.862 155.589 257.082 155.711 260.978 156.077C264.591 156.402 269.07 156.829 273.304 155.285C278.31 153.456 281.753 149.332 283.823 142.668C285.272 137.995 287.587 135.313 290.673 134.744C296.488 133.647 304.147 139.965 310 146.02V145.167C309.699 144.842 309.379 144.537 309.059 144.212C301.456 136.654 295.246 133.261 290.579 134.134Z" fill="#848484"/>
<path d="M298.326 149.746C295.403 148.553 292.935 148.788 291.037 150.471C289.48 151.834 288.816 153.773 289.044 156.222C289.86 164.701 301.382 177.184 310 183V182.233C306.185 179.613 301.933 175.778 298.288 171.624C293.087 165.681 289.993 160.185 289.594 156.116C289.385 153.922 289.974 152.175 291.378 150.939C296.485 146.444 304.894 154.326 310 160.163V159.247C308.823 157.905 307.475 156.499 306.052 155.157C303.223 152.516 300.623 150.684 298.326 149.746Z" fill="#848484"/>
<path fill-rule="evenodd" clip-rule="evenodd" d="M245.326 156.868C245.39 156.918 245.426 156.946 245.432 156.95C247.655 158.751 248.439 160.228 247.767 161.341C247.02 162.535 244.61 163 241.435 163C237.083 163 231.255 162.13 226.137 161.017C213.679 158.326 201.799 153.753 194.365 148.796C185.997 143.212 183.158 137.162 186.166 131.294C186.969 129.716 188.314 128.704 190.144 128.259C196.046 126.843 207.16 131.234 223.149 141.35C234.385 148.431 244.201 156.001 245.326 156.868ZM240.37 162.353C245.544 162.494 246.926 161.543 247.281 160.977C247.898 160.005 246.441 158.508 245.096 157.436C244.61 157.051 208.001 128.603 192.516 128.603C191.694 128.603 190.947 128.684 190.256 128.846C188.594 129.251 187.38 130.161 186.651 131.578C185.157 134.491 185.176 137.445 186.726 140.379C188.127 143.05 190.798 145.7 194.646 148.27C202.024 153.187 213.828 157.739 226.231 160.41C231.554 161.563 236.579 162.251 240.37 162.353Z" fill="#848484"/>
<path fill-rule="evenodd" clip-rule="evenodd" d="M226.942 150.787C227.076 150.874 227.151 150.923 227.159 150.927C227.438 151.142 228.312 151.827 227.884 152.472C227.643 152.863 226.899 153 225.895 153C223.144 153 218.479 151.866 217.289 151.573C211.099 150.008 205.355 147.76 201.935 145.55C198.496 143.321 197.307 141.151 198.385 139.098C198.645 138.609 199.091 138.277 199.686 138.12C202.102 137.475 207.474 139.43 215.635 143.947C221.002 146.918 225.87 150.089 226.942 150.787ZM217.419 150.986C223.739 152.57 227.122 152.609 227.438 152.12C227.475 152.101 227.42 151.866 226.825 151.397C226.304 151.045 207.307 138.57 200.745 138.57C200.392 138.57 200.095 138.609 199.816 138.687C199.351 138.805 199.054 139.039 198.868 139.372C197.957 141.092 199.072 142.989 202.214 145.022C205.578 147.212 211.266 149.441 217.419 150.986Z" fill="#848484"/>
<path fill-rule="evenodd" clip-rule="evenodd" d="M115.508 226.782C113.649 227.649 112.124 228 110.878 228C108.348 228 106.972 226.555 106.191 225.028C101.226 215.268 112.44 183.839 127.69 171.581C132.246 167.929 136.338 166.443 139.834 167.186C142.717 167.805 145.19 169.889 147.199 173.397C149.17 176.823 150.118 180.785 149.988 184.871C149.858 188.936 148.649 192.836 146.51 196.138L145.934 197.026L145.9 197.077C138.807 208.019 131.477 219.324 115.508 226.782ZM128.025 172.118C121.125 177.669 114.337 187.925 109.873 199.543C105.689 210.418 104.443 220.323 106.675 224.74C108.181 227.69 111.064 228.186 115.285 226.205C131.13 218.796 138.421 207.55 145.469 196.654L146.046 195.767C148.128 192.568 149.3 188.792 149.43 184.85C149.56 180.888 148.631 177.05 146.734 173.748C144.818 170.405 142.456 168.404 139.741 167.826C139.183 167.702 138.607 167.64 138.03 167.64C135.073 167.64 131.725 169.146 128.025 172.118Z" fill="#848484"/>
<path fill-rule="evenodd" clip-rule="evenodd" d="M121.325 213.223C120.142 213.769 119.17 214 118.388 214C116.882 214 116.062 213.181 115.623 212.319C114.308 209.756 115.109 204.335 117.702 198.179C120.409 191.792 124.471 185.993 128.589 182.716C131.316 180.552 133.757 179.669 135.873 180.11C137.608 180.468 139.115 181.707 140.316 183.808C142.699 187.968 142.547 193.263 139.896 197.318C135.683 203.768 131.087 208.684 121.325 213.223ZM128.933 183.241C124.909 186.456 120.905 192.149 118.236 198.452C115.738 204.314 114.918 209.651 116.138 212.025C116.939 213.601 118.617 213.811 121.115 212.655C130.763 208.18 135.282 203.327 139.439 196.961C141.956 193.116 142.108 188.094 139.839 184.165C138.714 182.233 137.36 181.077 135.778 180.741C135.454 180.678 135.13 180.636 134.786 180.636C133.051 180.636 131.106 181.518 128.933 183.241Z" fill="#848484"/>
<path d="M301.709 213.929C296.925 210.819 292.16 210.16 288.315 212.075C282.593 214.897 279.967 222.805 282.218 230.466C282.8 232.443 282.443 234.029 281.168 235.264C277.135 239.136 264.097 239.465 245.376 236.15C229.206 233.287 211.779 228.118 202.981 223.546C195.684 219.757 189.793 219.139 185.46 221.672C181.615 223.917 179.082 228.736 178.125 235.573C176.7 245.808 157.097 255.57 141.339 263.396C130.159 268.956 121.324 273.343 120.142 276.947C119.936 277.565 119.954 278.141 120.198 278.677C121.249 281.066 123.819 281.477 128.565 280.015C132.935 278.656 139.126 275.752 146.948 272.066C159.085 266.341 175.724 258.494 197.072 251.019C214.574 244.902 229.787 245.602 242.281 253.099C249.053 257.176 254.905 263.19 259.67 270.974C263.741 277.647 266.986 285.617 269.031 294.04C270.531 300.218 273.814 305.367 278.804 309.341C282.837 312.554 288.015 315.025 294.168 316.693C298.97 317.991 304.429 318.773 310 319V318.382C304.466 318.156 299.064 317.373 294.299 316.076C288.221 314.449 283.119 311.998 279.142 308.826C274.264 304.934 271.057 299.909 269.575 293.855C267.511 285.349 264.247 277.317 260.139 270.604C255.318 262.716 249.409 256.641 242.543 252.522C229.919 244.923 214.555 244.223 196.903 250.38C175.518 257.856 158.879 265.702 146.723 271.448C131.21 278.759 122.656 282.795 120.705 278.368C120.536 277.976 120.517 277.565 120.667 277.111C121.774 273.755 130.947 269.183 141.583 263.911C149.499 259.977 158.485 255.508 165.557 250.772C173.736 245.294 178.032 240.33 178.688 235.614C179.607 228.983 182.046 224.329 185.723 222.166C189.906 219.716 195.627 220.354 202.756 224.061C215.849 230.857 247.814 238.971 267.23 238.971C273.927 238.971 279.142 238.003 281.562 235.676C283.025 234.276 283.437 232.443 282.781 230.219C280.624 222.866 283.119 215.267 288.577 212.569C295.593 209.11 303.359 214.341 309.981 222.537V221.487C307.242 218.295 304.485 215.741 301.709 213.929Z" fill="#848484"/>
<path d="M299.522 224.367C297.579 223.712 295.749 223.937 294.087 225.022C289.212 228.237 290.276 234.135 291.21 239.357C291.864 242.982 292.48 246.401 290.967 248.306C289.921 249.616 287.886 250.169 284.766 249.965C277.65 249.514 270.814 247.855 265.323 246.524C258.02 244.763 252.734 243.473 250.81 245.828C250.231 246.545 249.951 247.343 250.007 248.224C250.156 251.009 253.518 254.265 257.796 258.381C263.941 264.32 271.599 271.733 274.232 281.685C276.81 291.392 280.284 300.996 288.315 305.44C291.397 307.14 295.002 308 299.167 308C302.417 308 306.022 307.488 309.981 306.444V305.809C301.016 308.184 293.956 307.877 288.558 304.887C280.732 300.546 277.295 291.085 274.755 281.501C272.065 271.385 264.352 263.91 258.151 257.91C253.985 253.876 250.698 250.702 250.549 248.163C250.511 247.446 250.735 246.811 251.221 246.217C252.921 244.128 258.337 245.439 265.211 247.098C270.721 248.429 277.594 250.087 284.748 250.538C288.054 250.743 290.22 250.128 291.397 248.654C293.078 246.524 292.443 242.961 291.771 239.193C290.818 233.93 289.847 228.503 294.385 225.514C295.898 224.51 297.579 224.326 299.372 224.899C302.529 225.944 306.171 229.527 310 235.282V234.217C306.899 229.732 303.201 225.575 299.522 224.367Z" fill="#848484"/>
<path d="M303.25 244.309C300.558 245.279 298.677 248.517 298.584 252.395C298.529 254.829 298.086 256.335 297.183 257.263C295.228 259.264 290.747 258.955 282.595 258.398L281.636 258.336C278.483 258.13 276.767 258.583 276.196 259.759C275.329 261.595 277.45 264.71 280.401 269.042C283.038 272.899 286.32 277.685 288.165 282.8C289.585 286.719 292.001 289.422 295.32 290.845C297.275 291.67 299.414 292 301.554 292C304.578 292 307.584 291.361 310 290.639V289.979C305.574 291.319 300.023 292.165 295.523 290.267C292.351 288.927 290.046 286.327 288.681 282.573C286.8 277.375 283.499 272.548 280.843 268.67C278.224 264.854 275.974 261.554 276.675 260.069C277.118 259.14 278.722 258.79 281.581 258.975L282.54 259.037C291.097 259.615 295.412 259.904 297.533 257.738C298.566 256.686 299.064 255.036 299.119 252.416C299.211 248.806 300.927 245.794 303.398 244.907C305.371 244.206 307.639 244.846 310 246.681V245.898C306.976 243.649 304.633 243.814 303.25 244.309Z" fill="#848484"/>
<path d="M298.807 266.181C297.105 268.328 296.58 271.041 297.34 273.836C298.173 276.874 301.252 278.595 306.486 278.939C307.175 278.98 307.863 279 308.515 279C309.022 279 309.529 278.98 310 278.959V278.352C305.635 278.534 299.043 278.048 297.847 273.633C297.141 271.041 297.63 268.53 299.188 266.566C301.361 263.832 305.255 262.435 309.982 262.617V262.009C305.128 261.868 301.089 263.326 298.807 266.181Z" fill="#848484"/>
<path d="M68.759 202.714C75.8926 205.919 82.7053 209 87.31 209C88.5556 209 89.6313 208.773 90.5182 208.276C91.7638 207.573 92.5564 206.312 92.8961 204.554C93.7076 200.419 89.6879 196.428 83.5923 190.39C77.5533 184.414 69.2874 176.246 61.984 164.005C57.0207 155.713 52.3594 150.378 48.0189 148V148.682C52.1895 151.06 56.6999 156.271 61.4934 164.336C68.8534 176.66 77.1381 184.848 83.196 190.845C89.1406 196.738 93.0848 200.625 92.3299 204.409C92.0091 206.002 91.3297 207.077 90.2351 207.697C86.3287 209.951 77.893 206.146 68.9666 202.114C63.0786 199.467 56.983 196.717 51.6989 195.477C50.3779 195.166 49.1323 194.96 48 194.856V195.477C49.0946 195.58 50.3024 195.766 51.5856 196.076C56.832 197.338 62.9087 200.067 68.759 202.714Z" fill="#848484"/>
<path d="M65.2276 191C67.1018 191 68.2911 190.482 68.7777 189.465C69.9671 186.914 66.381 182.05 58.0915 174.953C54.3432 171.764 50.4508 168.814 48 167V167.698C56.1994 173.738 70.1833 185.159 68.3092 189.186C67.9127 190.043 66.8315 190.422 65.3178 190.422C61.3352 190.422 54.2712 187.91 48 185.239V185.877C49.3515 186.455 50.7752 187.033 52.2168 187.591C58.0555 189.864 62.4164 191 65.2276 191Z" fill="#848484"/>
<path fill-rule="evenodd" clip-rule="evenodd" d="M145.924 239.438C146.921 237.615 147.974 235.972 149.083 234.53C152.593 229.923 157.913 227.519 163.252 228.08C166.393 228.421 167.981 229.623 168 231.686C168.037 238.516 148.88 252.778 140.252 253.78C138.996 253.94 138.036 254 137.315 254C135.763 254 135.246 253.7 135.061 253.259C134.692 252.337 136.022 251.015 138.239 248.812C140.603 246.468 143.836 243.264 145.924 239.438ZM157.027 244.465C163.474 239.498 167.483 234.59 167.464 231.706C167.464 230.003 166.023 228.982 163.234 228.701C162.735 228.641 162.236 228.621 161.737 228.621C157.082 228.621 152.611 230.905 149.526 234.911C148.436 236.313 147.402 237.955 146.423 239.738C144.317 243.609 141.069 246.831 138.691 249.189L138.627 249.253L138.543 249.336C136.98 250.893 135.379 252.487 135.597 252.998C135.726 253.319 136.632 253.599 140.215 253.179C144.169 252.718 150.764 249.293 157.027 244.465Z" fill="#848484"/>
<path d="M66.3087 130.049C70.5251 138.526 75.0413 147.25 79.4452 153.618C84.2987 160.601 88.5152 164 92.3568 164C92.3943 164 92.4318 164 92.4692 164C96.2921 163.939 99.6653 160.58 102.776 153.782C109.316 139.509 117.056 130.786 125.17 128.595C130.717 127.1 136.414 128.574 142.092 133.018C146.458 136.438 149.569 137.564 151.555 136.479C154.498 134.881 154.666 128.923 154.854 122.042C155.06 114.486 155.285 105.906 159.426 101.975C161.356 100.152 163.942 99.4763 167.334 99.8859C176.217 100.992 184.668 99.5173 191.771 95.6676C198.517 92.0021 203.745 86.4119 206.875 79.4906C209.855 72.9174 210.717 65.5046 209.405 58.0919C208.861 54.9998 207.943 51.9692 206.688 49H206.05C210.435 59.1157 210.679 69.7639 206.388 79.2244C203.314 86.0228 198.18 91.5107 191.546 95.1147C184.537 98.9234 176.179 100.357 167.409 99.2715C163.905 98.8415 161.094 99.5787 159.07 101.504C154.741 105.599 154.516 114.322 154.291 122.001C154.123 128.411 153.954 134.472 151.312 135.905C149.513 136.888 146.608 135.762 142.41 132.486C136.582 127.94 130.736 126.424 125.02 127.96C116.737 130.213 108.866 139.038 102.27 153.475C99.253 160.048 96.0485 163.283 92.4692 163.345C92.4318 163.345 92.3943 163.345 92.3568 163.345C84.205 163.345 75.2662 146.738 66.7959 129.701C61.605 119.319 55.3085 112.152 48 108.343V109.019C55.0836 112.807 61.2302 119.851 66.3087 130.049Z" fill="#848484"/>
<path d="M73.1884 104C76.4115 104 79.2433 103.485 81.5721 102.436C86.8818 100.048 89.5273 95.1695 89.4342 87.8829C89.341 80.7403 91.0737 75.4296 94.7252 71.6628C103.724 62.3177 123.099 63.9233 143.63 65.6523C146.648 65.8993 149.778 66.1669 152.852 66.3933C155.852 66.6198 158.609 66.7227 161.143 66.7227C172.712 66.7227 179.27 64.4379 180.705 59.8888C181.711 56.6778 180.034 52.7874 177.351 49H176.625C179.382 52.7668 181.133 56.616 180.183 59.7036C178.544 64.9319 169.378 66.9903 152.908 65.7964C149.834 65.57 146.704 65.3024 143.686 65.0554C123.044 63.3263 103.537 61.7002 94.3526 71.2305C90.5893 75.1415 88.8007 80.5962 88.8939 87.924C88.987 94.9225 86.4533 99.6362 81.3858 101.9C74.8651 104.823 64.2644 103.485 52.2664 98.2365C50.8318 97.619 49.4159 96.9397 48 96.2399V96.9192C49.3414 97.5984 50.7014 98.2365 52.0614 98.8129C59.9235 102.23 67.2267 104 73.1884 104Z" fill="#848484"/>
<path d="M62.5462 83.9594C69.2512 83.5122 74.9318 79.6707 79.4577 72.5366L80.2027 71.3577C85.6971 62.6992 88.4536 58.3496 92.5325 56.5407C96.6114 54.7317 102.143 55.3821 113.169 56.7033C114.51 56.8659 115.944 57.0285 117.453 57.2114C130.528 58.7358 139.989 59.2642 146.378 58.7764C152.543 58.3089 156.044 56.9472 157.385 54.4878C158.205 52.9837 158.167 51.1545 157.497 49H156.919C157.59 51.0732 157.664 52.8008 156.901 54.1829C155.672 56.3984 152.226 57.7195 146.34 58.1667C139.971 58.6545 130.546 58.1463 117.509 56.6016C116 56.4187 114.566 56.2561 113.225 56.0935C102.106 54.752 96.5369 54.0813 92.309 55.9715C88.0811 57.8618 85.2874 62.252 79.7371 71.0122L78.9921 72.1911C74.5593 79.1626 69.0277 82.9228 62.5089 83.3496C59.1564 83.5732 54.2953 82.9431 48 79.7317V80.4024C53.5316 83.187 57.9644 84 61.261 84C61.7267 84 62.1551 83.9797 62.5462 83.9594Z" fill="#848484"/>
<path d="M70.8757 70.4765C73.6246 69.0589 75.5085 66.6467 76.4504 63.3036C77.8537 58.437 78.1613 53.5281 77.9306 49H77.3539C77.5846 53.4646 77.277 58.31 75.8929 63.1132C74.9894 66.287 73.2017 68.5722 70.6065 69.9052C64.4359 73.0791 54.8435 70.4765 48 67.874V68.5511C52.5944 70.2861 58.3998 72 63.6285 72C66.2621 72 68.7611 71.5557 70.8757 70.4765Z" fill="#848484"/>
<path d="M185.84 64.0704C182.151 72.0548 165.813 70.9725 165.626 70.9521C156.479 70.9521 147.983 70.2374 140.494 69.5839C129.353 68.6241 119.721 67.8073 112.605 69.829C108.841 70.8908 105.916 72.7082 103.681 75.3629C101.259 78.2218 99.6193 82.0813 98.6505 87.1252C95.4275 103.993 86.988 106.014 80.1879 107.627C76.0893 108.608 72.5495 109.445 71.3758 113.447C70.3139 117.103 71.5435 124.372 74.543 131.969C77.7474 140.116 82.1069 146.426 86.2055 148.836C87.5283 149.612 88.851 150 90.0992 150C92.4839 150 94.7382 148.611 96.713 145.895C99.7124 141.771 102.153 137.278 104.519 132.928C108.934 124.801 112.735 117.797 118.641 116.224C122.274 115.265 126.503 116.449 131.533 119.9C138.203 124.454 142.823 125.883 145.673 124.27C149.213 122.269 149.567 116.081 149.94 109.506C150.443 100.684 150.964 91.5564 159.236 91.9648C161.136 92.0465 162.962 92.1078 164.732 92.1078C182.617 92.1078 194.224 87.4723 199.235 78.2831C203.185 71.0746 202.179 62.3755 200.651 56.3718C199.924 53.4925 199.012 50.9604 198.211 49H197.596C198.415 50.9604 199.366 53.5946 200.111 56.5556C202.812 67.2355 200.856 74.0968 198.751 77.9767C193.348 87.8603 180.046 92.3732 159.255 91.3726C155.286 91.1888 152.641 93.0267 151.169 97.0087C149.884 100.46 149.623 105.054 149.381 109.506C149.027 115.898 148.673 121.922 145.412 123.76C142.748 125.271 138.314 123.841 131.812 119.41C126.633 115.877 122.274 114.652 118.492 115.673C112.362 117.307 108.487 124.413 104.016 132.663C101.669 136.992 99.228 141.464 96.2472 145.548C93.3409 149.53 90.0433 150.449 86.4291 148.326C82.4422 145.977 78.1573 139.79 75.0087 131.764C72.1211 124.413 70.8542 117.143 71.8602 113.672C72.9408 109.996 76.1638 109.22 80.2625 108.26C83.6904 107.444 87.5655 106.525 91.0307 103.625C95.0362 100.276 97.7004 94.9258 99.1535 87.2681C100.961 77.7725 105.134 72.5857 112.698 70.4416C115.865 69.5431 119.572 69.2163 123.69 69.2163C128.682 69.2163 134.327 69.7064 140.401 70.2169C147.909 70.85 156.404 71.5851 165.552 71.5851C165.552 71.5851 165.552 71.5851 165.57 71.5851C165.608 71.5851 169.818 71.8914 174.42 71.1563C180.679 70.1761 184.666 67.889 186.306 64.3767C188.076 60.558 186.939 55.4121 182.915 49.0204H182.244C186.343 55.3304 187.535 60.3947 185.84 64.0704Z" fill="#848484"/>
<path d="M187.048 70.8755C183.989 75.1309 174.738 76.8953 160.321 75.9819C149.372 75.2969 139.226 73.2834 139.133 73.2626C139.077 73.2419 132.885 72.0171 125.909 73.5325C121.787 74.4043 118.206 76.0442 115.241 78.4107C111.529 81.3583 108.788 85.4269 107.109 90.4919C103.864 100.31 100.227 107.015 95.9742 111.001C92.2813 114.468 88.6816 115.381 85.3244 116.024C80.4192 116.958 78.7592 120.446 78.237 123.207C77.1925 128.604 79.7104 135.89 83.6272 138.817C84.6903 139.606 85.772 140 86.8165 140C87.7864 140 88.7376 139.668 89.6328 138.983C93.3071 136.201 97.0746 130.846 101.066 125.199C108.657 114.426 116.509 103.3 124.399 108.884C125.555 109.693 126.674 110.503 127.737 111.292C133.519 115.505 138.107 118.847 140.998 117.27C142.714 116.336 143.684 113.866 144.038 109.465C144.766 100.373 146.108 93.5226 150.305 89.6616C153.289 86.9007 157.542 85.8836 163.323 86.5063C179.513 88.2708 190.181 85.074 195.049 77.0406C198.947 70.6056 198.276 62.2401 197.026 56.3448C196.317 53.0027 195.347 50.0551 194.583 48H193.986C194.751 50.0343 195.758 53.0442 196.485 56.4901C197.697 62.2608 198.35 70.4395 194.583 76.6877C189.845 84.5135 179.345 87.6065 163.379 85.8836C157.448 85.2401 153.065 86.3195 149.951 89.1841C145.623 93.1904 144.225 100.165 143.479 109.423C143.143 113.533 142.266 115.921 140.756 116.73C138.144 118.142 133.687 114.903 128.054 110.793C126.972 110.005 125.853 109.195 124.697 108.385C120.948 105.728 116.901 106.393 112.331 110.42C108.34 113.907 104.423 119.47 100.637 124.847C96.6829 130.472 92.9341 135.765 89.3344 138.505C87.2268 140.104 85.2498 139.294 83.9442 138.319C80.1954 135.516 77.7894 128.521 78.7779 123.352C79.2815 120.778 80.8295 117.519 85.4177 116.647C88.8495 115.983 92.5237 115.049 96.3286 111.478C100.656 107.41 104.349 100.622 107.631 90.6995C109.272 85.7383 111.94 81.7735 115.539 78.9088C118.43 76.6047 121.955 75.0063 125.984 74.1345C128.595 73.574 131.094 73.3872 133.202 73.3872C136.634 73.3872 138.984 73.8646 139.021 73.8646C139.114 73.8854 149.298 75.8989 160.283 76.5839C175.092 77.5181 184.25 75.7329 187.477 71.2491C190.666 66.8484 191.412 60.8908 189.621 54.0406C189.006 51.6949 188.204 49.6191 187.495 48.0208H186.861C187.589 49.5984 188.446 51.7572 189.081 54.2067C190.293 58.8357 190.908 65.4991 187.048 70.8755Z" fill="#848484"/>
<path fill-rule="evenodd" clip-rule="evenodd" d="M126.93 79.9993C128.927 78.9328 131.149 78.7072 133.203 79.384C135.22 80.0403 136.732 81.4145 137.684 83.4654C140.597 89.6389 138.02 100.488 136.228 106.395C135.761 107.954 135.182 108.774 134.417 108.959C134.305 108.979 134.193 109 134.081 109C132.837 109 131.408 107.398 129.63 105.404L129.6 105.37C127.9 103.462 125.977 101.309 123.662 99.7912C119.797 97.248 117.893 94.3971 118.005 91.2796C118.21 85.8446 124.689 81.2094 126.93 79.9993ZM134.305 108.364C134.846 108.221 135.313 107.523 135.705 106.211C139.831 92.6333 138.412 86.3163 137.18 83.7731C136.284 81.8862 134.883 80.6146 133.035 79.9993C132.307 79.7532 131.56 79.6301 130.794 79.6301C129.562 79.6301 128.33 79.9378 127.172 80.5531C125.006 81.7221 118.752 86.1727 118.565 91.3001C118.453 94.1715 120.283 96.8583 123.961 99.2579C126.31 100.782 128.329 103.05 129.964 104.887L130.01 104.939L130.031 104.963C131.778 106.922 133.282 108.609 134.305 108.364Z" fill="#848484"/>
<path fill-rule="evenodd" clip-rule="evenodd" d="M128.5 89.3436C129.075 88.982 129.716 88.8969 130.308 89.1309C130.883 89.3648 131.327 89.8328 131.623 90.5559C132.445 92.5978 131.738 96.1073 131.245 98.0216C131.163 98.3832 130.999 98.8724 130.637 98.9787C130.588 99 130.555 99 130.505 99C130.098 99 129.707 98.4783 129.189 97.7864L129.174 97.7664C128.73 97.1708 128.221 96.4902 127.612 96.0222C126.511 95.1715 125.969 94.193 126.001 93.1083C126.063 91.0754 128.188 89.5655 128.469 89.3658C128.488 89.3524 128.499 89.3449 128.5 89.3436ZM130.522 98.3406C130.571 98.3406 130.67 98.1705 130.768 97.8089C131.146 96.3413 131.935 92.7254 131.196 90.8324C130.966 90.2794 130.637 89.9178 130.177 89.7477C129.996 89.6839 129.799 89.6413 129.618 89.6413C129.305 89.6413 129.01 89.7264 128.714 89.9178C128.27 90.2156 126.544 91.5981 126.495 93.1508C126.462 93.9591 126.922 94.7461 127.859 95.4692C128.516 95.9797 129.075 96.7241 129.519 97.3197C129.541 97.3486 129.564 97.378 129.587 97.4078C129.936 97.8612 130.352 98.4005 130.522 98.3406Z" fill="#848484"/>
<path d="M276.978 85.1829C269.863 87.8865 264.927 95.7736 262.339 108.621C261.147 114.556 258.167 118.296 253.492 119.74C244.738 122.464 230.732 116.203 220.954 105.165C213.113 96.3427 209.965 86.6465 212.312 78.5765C214.491 71.096 215.106 62.965 214.156 54.4478C213.951 52.6589 213.671 50.8295 213.336 49H212.759C213.113 50.8701 213.392 52.6996 213.597 54.5291C214.547 62.965 213.932 71.0147 211.79 78.4139C209.369 86.7075 212.573 96.607 220.563 105.612C225.219 110.857 231.067 115.268 237.046 118.032C241.292 120.004 245.39 121 249.003 121C250.679 121 252.244 120.776 253.659 120.35C258.465 118.866 261.668 114.861 262.897 108.763C265.449 96.1395 270.236 88.415 277.164 85.7724C287.035 82.0119 299.682 89.0858 310 97.2778V96.5257C299.607 88.3337 286.961 81.402 276.978 85.1829Z" fill="#848484"/>
<path d="M280.104 69.1855C274.046 70.5148 269.433 74.9118 266.413 82.213C262.231 92.3159 256.923 99.3921 250.621 103.278C243.869 107.429 237.868 106.734 234.023 105.425C229.372 103.83 225.358 100.476 222.713 95.9767C219.975 91.3343 218.962 85.8533 219.881 80.5564C221.776 69.5536 222.488 58.9394 222.038 49H221.476C221.926 58.8984 221.213 69.4718 219.337 80.4337C218.4 85.8942 219.431 91.5183 222.245 96.2835C224.964 100.905 229.09 104.341 233.873 105.977C235.88 106.673 237.943 107 240.006 107C243.7 107 247.433 105.916 250.902 103.789C257.317 99.842 262.699 92.6636 266.938 82.4379C269.883 75.3209 274.346 71.067 280.217 69.7581C284.981 68.7151 290.701 69.6559 296.759 72.519C301.504 74.7482 306.305 78.1023 310 81.763V80.945C302.367 73.6234 290.063 66.9972 280.104 69.1855Z" fill="#848484"/>
<path d="M187.791 329.702C187.315 329.151 186.711 328.931 186.016 329.019C183.655 329.327 180.434 333.406 178 337H178.714C181.038 333.605 184.003 329.967 186.071 329.68C186.601 329.614 187.041 329.768 187.407 330.187C188.669 331.62 190.078 334.244 191.359 337H192C190.664 334.09 189.163 331.246 187.791 329.702Z" fill="#848484"/>
<path d="M304.459 68.6882C298.097 68.0229 290.411 65.2786 283.359 61.1206C275.187 56.2973 268.359 63.4906 260.467 71.8067C254.46 78.1476 247.65 85.3202 239.218 87.9189C236.251 88.8337 233.957 88.3555 232.371 86.5468C226.979 80.3306 230.598 59.9771 233.061 49H232.483C231.737 52.3472 230.878 56.526 230.207 60.8919C228.136 74.4678 228.733 83.2412 231.979 86.9834C233.154 88.3347 234.666 89 236.494 89C237.389 89 238.341 88.8337 239.386 88.5218C247.93 85.9023 254.814 78.6674 260.859 72.264C268.602 64.1143 275.28 57.0665 283.098 61.6819C290.299 65.9439 297.873 68.6466 304.403 69.3118C306.437 69.5198 308.302 69.5198 310 69.3118V68.6882C308.34 68.8961 306.474 68.8961 304.459 68.6882Z" fill="#848484"/>
<path d="M240.969 75.9387C241.27 75.9796 241.553 76 241.854 76C246.868 76 252.466 70.0318 255.463 66.3119C259.441 61.4065 263.305 55.0295 266 49H265.378C262.72 54.8864 258.932 61.0999 255.049 65.9031C249.696 72.5254 244.72 75.8774 241.044 75.3255C239.517 75.1007 238.518 74.3444 237.99 73.0568C236.011 68.1514 241.364 56.7464 245.568 49.0204H244.908C244.079 50.5738 243.193 52.2498 242.345 53.9871C237.727 63.4095 236.087 69.9092 237.482 73.302C238.085 74.7941 239.253 75.673 240.969 75.9387Z" fill="#848484"/>
<path d="M247.709 62.9788C247.825 63 247.961 63 248.097 63C249.261 63 251.104 62.2364 253.665 59.0333C255.566 56.6788 257.39 53.4758 258.457 50.6758C258.631 50.2091 258.825 49.6364 259 49.0212H258.399C258.263 49.4667 258.108 49.9333 257.933 50.4212C255.741 56.1909 250.735 62.7879 247.806 62.3212C247.263 62.2364 246.913 61.9818 246.719 61.5152C245.73 59.0545 249.746 51.7788 251.473 49H250.774C249.533 51.0576 245.012 58.8 246.196 61.7697C246.448 62.4697 246.972 62.8727 247.709 62.9788Z" fill="#848484"/>
<path d="M300.8 62.206C297.152 61.6836 293.065 59.9284 288.63 56.9821C284.763 54.4119 281.299 51.3612 278.843 49H278C280.511 51.4448 284.195 54.7672 288.355 57.5254C292.864 60.5134 297.024 62.3104 300.745 62.8328C301.514 62.9373 302.266 63 303.017 63C305.601 63 307.929 62.3313 310 60.994V60.2627C307.342 62.0388 304.282 62.7075 300.8 62.206Z" fill="#848484"/>
<path fill-rule="evenodd" clip-rule="evenodd" d="M189.4 232.79C192.981 230.464 199.187 230.401 207.849 232.624C214.055 234.224 219.343 236.467 219.774 236.654C225.342 237.797 226.036 238.815 225.999 239.563C225.961 240.581 224.461 241.973 213.137 243.842C206.106 245.006 197.725 245.961 191.612 246.647L190.094 246.813C188.988 246.938 187.994 247 187.094 247C183.663 247 181.657 246.086 181.132 244.299C180.175 241.079 184.581 235.927 189.4 232.79ZM213.043 243.24C224.161 241.391 225.399 240.041 225.417 239.542C225.417 239.293 225.024 238.379 219.643 237.278L219.586 237.257C219.584 237.256 219.567 237.249 219.537 237.236C218.978 237 213.788 234.805 207.737 233.247C204.456 232.396 200.537 231.648 196.975 231.648C194.181 231.648 191.594 232.125 189.7 233.351C187.319 234.909 185.088 236.924 183.569 238.898C181.975 240.996 181.3 242.845 181.675 244.133C182.257 246.044 185.144 246.771 190.038 246.211L191.556 246.044C192.008 245.992 192.472 245.939 192.947 245.884C198.897 245.199 206.549 244.317 213.043 243.24Z" fill="#848484"/>
<path fill-rule="evenodd" clip-rule="evenodd" d="M194.008 102.273C193.853 100.712 195.971 98.8774 200.285 96.7894C203.122 95.4235 206.503 95.8528 208.854 97.9017C210.72 99.5214 212.741 101.824 211.73 103.736C210.953 105.219 208.485 106 205.201 106C203.005 106 200.44 105.649 197.758 104.927C195.329 104.283 194.105 103.405 194.008 102.273ZM197.914 104.361C204.113 106.039 210.079 105.629 211.225 103.463C211.866 102.214 210.934 100.458 208.485 98.3506C207.125 97.1992 205.434 96.5943 203.724 96.5943C202.636 96.5943 201.548 96.8285 200.537 97.3163C196.592 99.2287 194.474 100.965 194.591 102.214C194.669 103.053 195.815 103.795 197.914 104.361Z" fill="#848484"/>
<path d="M253.295 329.664C243.489 328.315 237.729 319.281 230.464 307.835C228.431 304.646 226.323 301.335 223.951 297.901C218.003 289.296 211.34 284.125 204.169 282.531C196.019 280.732 187.059 283.512 177.554 290.788C167.108 298.78 151.994 311.636 139.025 323.573C135.392 326.925 130.649 331.381 126 336H126.828C130.517 332.362 134.715 328.356 139.383 324.043C152.332 312.127 167.428 299.27 177.855 291.299C195.567 277.748 210.926 280.098 223.481 298.289C225.833 301.703 227.941 305.014 229.974 308.202C237.334 319.771 243.15 328.887 253.201 330.277C260.335 331.258 264.419 333.179 265.398 336H266C265.078 332.832 260.805 330.706 253.295 329.664Z" fill="#848484"/>
<path d="M199.432 306.166C195.95 304.427 192.376 304.636 188.803 306.773C179.942 312.052 171.911 318.294 164.929 325.353C160.637 329.689 157.395 333.669 155 337H155.737C161.189 329.522 171.726 317.645 189.042 307.318C192.468 305.286 195.876 305.076 199.192 306.731C205.879 310.062 211.111 320.326 214.316 328.37C215.55 331.428 216.582 334.423 217.411 337H218C217.153 334.361 216.103 331.281 214.832 328.118C210.116 316.283 204.921 308.889 199.432 306.166Z" fill="#848484"/>
<path fill-rule="evenodd" clip-rule="evenodd" d="M111.387 263.855C110.692 262.369 110.811 260.224 112.758 259.027C115.679 257.232 119.673 258.058 121.243 259.46C121.918 260.059 122.156 260.76 121.898 261.42C121.382 262.823 119.395 264.267 116.017 265.691C115.52 265.897 115.023 266 114.566 266C113.096 266 111.944 265.01 111.387 263.855ZM115.778 265.113C118.958 263.772 120.885 262.41 121.342 261.193C121.541 260.678 121.183 260.203 120.825 259.935C119.991 259.192 118.342 258.635 116.593 258.635C115.381 258.635 114.129 258.903 113.037 259.564C111.407 260.554 111.288 262.287 111.904 263.566C112.52 264.845 113.99 265.876 115.778 265.113Z" fill="#848484"/>
<path fill-rule="evenodd" clip-rule="evenodd" d="M141.923 315.189C141.188 317.177 133.21 321.512 130.57 322.657C130.004 322.897 129.457 323.018 128.948 322.998C127.326 322.998 126.062 321.894 125.44 320.569C124.648 318.883 124.799 316.454 126.949 315.109C130.721 312.74 139.792 312.359 141.602 314.005C141.98 314.326 142.093 314.748 141.923 315.189ZM127.232 315.631C125.383 316.795 125.251 318.823 125.949 320.308C126.647 321.793 128.307 322.998 130.343 322.095C133.681 320.629 140.792 316.534 141.376 314.968C141.433 314.828 141.452 314.667 141.225 314.467C139.603 313.001 130.683 313.463 127.232 315.631Z" fill="#848484"/>
<path d="M63.8829 62.3398C67.0439 60.1845 66.0097 53.3301 64.9561 49H64.3512C64.6244 50.0874 64.878 51.3495 65.0927 52.6699C65.6 56.0291 65.7561 60.3592 63.5707 61.8738C60.9951 63.6214 55.7658 61.3301 48 55.0583V55.7961C53.9902 60.5922 58.5366 63 61.5805 63C62.478 63 63.239 62.767 63.8829 62.3398Z" fill="#848484"/>
<path fill-rule="evenodd" clip-rule="evenodd" d="M174.591 199C171.866 199 168.956 198.709 166.88 197.873C163.915 196.708 163.748 194.921 164.174 193.638C164.6 192.259 165.472 191.249 166.787 190.647C169.141 189.578 172.848 189.831 177.797 191.424C181.448 192.609 184.469 194.105 184.507 194.124C186.063 194.94 186.119 195.717 185.915 196.222C185.303 197.679 181.448 198.534 178.056 198.845C177 198.942 175.814 199 174.591 199ZM166.991 191.191C165.824 191.715 165.045 192.609 164.675 193.833C164.211 195.328 165.008 196.513 167.084 197.349C169.531 198.32 173.719 198.67 178.001 198.281C181.949 197.912 184.988 196.98 185.396 196.008C185.6 195.503 184.877 194.998 184.247 194.668C184.062 194.571 176.018 190.608 170.235 190.608C169.03 190.608 167.918 190.763 166.991 191.191Z" fill="#848484"/>
</g>
</g>
<defs>
<filter id="filter0_d_0_3043" x="0" y="0" width="370" height="397" filterUnits="userSpaceOnUse" color-interpolation-filters="sRGB">
<feFlood flood-opacity="0" result="BackgroundImageFix"/>
<feColorMatrix in="SourceAlpha" type="matrix" values="0 0 0 0 0 0 0 0 0 0 0 0 0 0 0 0 0 0 127 0" result="hardAlpha"/>
<feOffset dx="6" dy="6"/>
<feGaussianBlur stdDeviation="27"/>
<feColorMatrix type="matrix" values="0 0 0 0 0 0 0 0 0 0 0 0 0 0 0 0 0 0 0.03 0"/>
<feBlend mode="normal" in2="BackgroundImageFix" result="effect1_dropShadow_0_3043"/>
<feBlend mode="normal" in="SourceGraphic" in2="effect1_dropShadow_0_3043" result="shape"/>
</filter>
</defs>
</svg>
